<svg width="274" height="102" viewBox="0 0 274 102" fill="none" xmlns="http://www.w3.org/2000/svg">
<path d="M1 1H273V101H1V1Z" fill="#E7E7E7" stroke="black" stroke-width="2"/>
<path d="M26 10H7V30.5" stroke="black"/>
<path d="M248.234 96.7153L267.232 96.4987L266.999 76" stroke="black"/>
<path d="M83.728 71.76C83.216 72.464 82.48 72.816 81.52 72.816C81.264 72.816 81.008 72.784 80.752 72.72C80.048 71.12 79.52 68.864 79.168 65.952C78.848 63.008 78.608 61.072 78.448 60.144C74.96 60.016 71.472 59.952 67.984 59.952C64.496 59.952 61.376 60.096 58.624 60.384C58.336 61.696 58.016 63.664 57.664 66.288C57.344 68.88 57.104 70.624 56.944 71.52C55.792 72.448 54.752 72.576 53.824 71.904C53.92 71.136 54.064 69.92 54.256 68.256C54.448 66.592 54.608 65.184 54.736 64.032C54.896 62.848 55.12 61.36 55.408 59.568C55.696 57.776 55.968 56.24 56.224 54.96C56.512 53.648 56.896 52.192 57.376 50.592C57.856 48.96 58.352 47.568 58.864 46.416C59.376 45.264 60 44.096 60.736 42.912C61.504 41.728 62.32 40.768 63.184 40.032C65.168 38.4 67.328 37.584 69.664 37.584C72 37.584 73.936 38.48 75.472 40.272C77.04 42.064 78.224 44.416 79.024 47.328C79.824 50.24 80.464 53.168 80.944 56.112C81.424 59.056 81.888 62.064 82.336 65.136C82.784 68.208 83.248 70.416 83.728 71.76ZM74.8 45.12C74.192 43.552 73.408 42.336 72.448 41.472C71.488 40.576 70.304 40.128 68.896 40.128C67.488 40.128 66.128 40.816 64.816 42.192C63.504 43.568 62.464 45.28 61.696 47.328C60.32 51.136 59.456 54.656 59.104 57.888C62.304 57.536 65.52 57.36 68.752 57.36C71.984 57.36 75.104 57.456 78.112 57.648C77.984 57.168 77.744 56.032 77.392 54.24C77.04 52.448 76.672 50.88 76.288 49.536C75.936 48.16 75.44 46.688 74.8 45.12ZM89.5521 69.024L89.1681 40.944C89.1681 38.896 93.3121 37.872 101.6 37.872C105.504 37.872 108.768 38.608 111.392 40.08C114.048 41.552 115.376 43.664 115.376 46.416C115.376 48.24 114.672 49.968 113.264 51.6C111.856 53.232 110.272 54.272 108.512 54.72C110.72 55.392 112.624 56.368 114.224 57.648C115.856 58.928 116.672 60.592 116.672 62.64C116.672 64.688 115.792 66.496 114.032 68.064C110.64 71.04 105.424 72.528 98.3841 72.528C92.4961 72.528 89.5521 71.36 89.5521 69.024ZM92.6721 54.864C94.6561 54.096 96.8481 53.712 99.2481 53.712C100.368 53.712 101.488 53.712 102.608 53.712C104.304 53.712 106.352 52.96 108.752 51.456C111.184 49.92 112.4 48.464 112.4 47.088C112.4 45.04 111.12 43.424 108.56 42.24C106 41.024 103.168 40.416 100.064 40.416C96.9601 40.416 94.4481 40.768 92.5281 41.472C92.5281 42.048 92.5281 42.896 92.5281 44.016C92.5281 45.104 92.5441 46.928 92.5761 49.488C92.6401 52.016 92.6721 53.808 92.6721 54.864ZM113.168 62.64C113.168 59.856 110.16 57.824 104.144 56.544C101.072 57.44 98.1601 57.888 95.4081 57.888C94.5121 57.888 93.6321 57.84 92.7681 57.744C92.8641 61.552 92.9121 65.424 92.9121 69.36C94.7681 69.776 96.6401 69.984 98.5281 69.984C100.448 69.984 102.144 69.872 103.616 69.648C105.12 69.392 106.608 69.008 108.08 68.496C109.584 67.984 110.8 67.216 111.728 66.192C112.688 65.168 113.168 63.984 113.168 62.64ZM150.046 42.96C151.71 44.24 153.038 45.92 154.03 48C155.054 50.048 155.566 52.448 155.566 55.2C155.566 57.952 155.006 60.528 153.886 62.928C152.766 65.328 151.31 67.232 149.518 68.64C145.838 71.52 141.758 72.96 137.278 72.96C132.83 72.96 129.022 71.52 125.854 68.64C122.686 65.728 121.102 61.76 121.102 56.736C121.102 53.856 121.566 51.264 122.494 48.96C123.454 46.656 124.734 44.8 126.334 43.392C129.662 40.448 133.598 38.976 138.142 38.976C142.622 38.976 146.59 40.304 150.046 42.96ZM124.27 56.832C124.27 60.96 125.438 64.256 127.774 66.72C130.142 69.184 133.278 70.416 137.182 70.416C141.694 70.416 145.31 69.04 148.03 66.288C150.782 63.504 152.158 60 152.158 55.776C152.158 51.52 150.782 48.128 148.03 45.6C145.278 43.072 141.934 41.808 137.998 41.808C134.062 41.808 130.782 43.104 128.158 45.696C125.566 48.256 124.27 51.968 124.27 56.832ZM162.643 38.784C163.667 38.112 164.563 37.92 165.331 38.208C165.715 38.336 165.859 38.688 165.763 39.264C164.803 45.6 164.323 49.968 164.323 52.368C164.323 54.736 164.451 56.8 164.707 58.56C164.995 60.288 165.459 62.112 166.099 64.032C166.771 65.92 167.811 67.456 169.219 68.64C170.627 69.792 172.339 70.368 174.355 70.368C177.171 70.368 179.635 68.656 181.747 65.232C183.891 61.776 184.963 57.632 184.963 52.8C184.963 47.936 183.827 43.184 181.555 38.544C182.227 37.968 182.819 37.68 183.331 37.68C183.875 37.68 184.291 37.728 184.579 37.824C187.139 41.504 188.419 46.288 188.419 52.176C188.419 57.008 187.171 61.632 184.675 66.048C183.459 68.128 181.859 69.84 179.875 71.184C177.891 72.496 175.811 73.152 173.635 73.152C171.491 73.152 169.667 72.704 168.163 71.808C166.691 70.88 165.523 69.728 164.659 68.352C163.827 66.944 163.139 65.312 162.595 63.456C161.667 60.256 161.203 56.752 161.203 52.944C161.203 47.312 161.683 42.592 162.643 38.784ZM190.173 39.984C190.173 38.448 195.677 37.68 206.685 37.68C209.213 37.68 212.461 37.792 216.429 38.016C220.397 38.208 222.445 38.496 222.573 38.88C222.509 40.32 221.181 41.04 218.589 41.04C217.853 41.04 216.621 40.96 214.893 40.8C213.165 40.64 211.677 40.56 210.429 40.56C209.213 40.56 208.605 40.832 208.605 41.376C208.605 48.256 208.445 58.512 208.125 72.144C207.453 72.624 206.461 72.864 205.149 72.864C205.117 71.456 205.101 69.776 205.101 67.824L205.341 47.088C205.341 44.592 205.309 42.496 205.245 40.8C204.573 40.736 203.693 40.704 202.605 40.704C201.549 40.704 199.885 40.8 197.613 40.992C195.341 41.152 193.741 41.232 192.813 41.232C191.053 41.232 190.173 40.816 190.173 39.984Z" fill="black"/>
</svg>
