<svg width="46" height="16" viewBox="0 0 46 16" fill="none" xmlns="http://www.w3.org/2000/svg">
<path d="M29.7192 14.1288C28.7808 13.4797 28.1205 12.5018 27.8692 11.3888C27.6492 10.4388 27.4292 9.04881 26.2392 8.87881C26.0789 8.8385 25.9092 8.86181 25.7657 8.94383C25.6221 9.02585 25.5159 9.16022 25.4692 9.31881C25.4262 9.4766 25.4472 9.645 25.5277 9.78735C25.6083 9.9297 25.7418 10.0345 25.8992 10.0788H26.0792L26.1392 10.1388C26.2059 10.2275 26.2598 10.3251 26.2992 10.4288C26.2992 10.4888 26.2992 10.4288 26.2992 10.4888L26.3592 10.6788C26.5092 11.1788 26.5692 11.6788 26.7392 12.1988C27.1565 13.402 27.9531 14.4372 29.0092 15.1488C29.1505 15.2092 29.3089 15.2159 29.4547 15.1677C29.6005 15.1195 29.7237 15.0196 29.8011 14.887C29.8785 14.7543 29.9047 14.5979 29.8749 14.4473C29.8451 14.2966 29.7613 14.162 29.6392 14.0688L29.7192 14.1288Z" fill="#231F20"/>
<path d="M7.62924 1.78878C7.28428 1.68892 6.91954 1.67876 6.56955 1.75926C6.21956 1.83975 5.89591 2.00825 5.62924 2.24879C4.97052 2.7896 4.3522 3.37783 3.77924 4.00878L0.179232 7.70878C-0.380768 8.27878 0.499247 9.16879 1.06925 8.58879L4.28925 5.27879C4.80925 4.72879 5.28923 4.18878 5.86923 3.64878C6.22923 3.28878 6.72924 2.76879 7.27924 2.99879C7.43967 3.04175 7.61056 3.01962 7.75476 2.93722C7.89896 2.85482 8.00479 2.71882 8.04923 2.55879C8.08953 2.39846 8.06624 2.22875 7.98422 2.08522C7.90221 1.94168 7.76782 1.83546 7.60922 1.78878H7.62924Z" fill="#231F20"/>
<path d="M30.5492 8.3688C30.5938 9.87111 31.0272 11.3362 31.8072 12.6209C32.5871 13.9057 33.6869 14.9661 34.9992 15.6988C35.6992 16.0888 36.3392 15.0088 35.6292 14.6188C34.5056 13.9963 33.5623 13.0935 32.8911 11.9982C32.2199 10.903 31.8438 9.65258 31.7992 8.3688C31.7799 8.21666 31.7058 8.07676 31.5908 7.97536C31.4757 7.87396 31.3276 7.81802 31.1742 7.81802C31.0209 7.81802 30.8728 7.87396 30.7577 7.97536C30.6427 8.07676 30.5685 8.21666 30.5492 8.3688Z" fill="#231F20"/>
<path d="M2.12926 14.8988C1.87926 14.1788 3.12924 13.7388 3.67924 13.5688C4.52816 13.2661 5.41175 13.0712 6.30925 12.9888C8.11568 12.8175 9.93642 13.0958 11.6092 13.7988C11.7549 13.8771 11.925 13.8969 12.0848 13.8541C12.2446 13.8114 12.3821 13.7094 12.4693 13.5688C12.5495 13.4251 12.5704 13.2558 12.5274 13.097C12.4844 12.9381 12.381 12.8024 12.2392 12.7188C10.0949 11.7989 7.73595 11.4975 5.42924 11.8488C3.92924 12.0688 0.139243 12.9488 0.929243 15.2288C1.18924 15.9888 2.38926 15.6688 2.12926 14.8988Z" fill="#231F20"/>
<path d="M35.7792 1.5088C37.4084 1.07507 39.129 1.12804 40.7284 1.66119C42.3279 2.19433 43.7361 3.18429 44.7792 4.5088C45.2792 5.1388 46.1592 4.24879 45.6592 3.62879C44.4558 2.1544 42.8517 1.0594 41.0402 0.475684C39.2287 -0.108034 37.2871 -0.155573 35.4493 0.338798C35.3308 0.409982 35.239 0.518153 35.1881 0.646644C35.1371 0.775134 35.1298 0.916813 35.1674 1.04984C35.2049 1.18287 35.2851 1.29987 35.3957 1.3828C35.5062 1.46574 35.641 1.51001 35.7792 1.5088Z" fill="#231F20"/>
</svg>
