<svg width="112" height="102" viewBox="0 0 112 102" fill="none" xmlns="http://www.w3.org/2000/svg">
<path d="M1 1H111V101H1V1Z" fill="#E7E7E7" stroke="black" stroke-width="2"/>
<path d="M30 10H11V30.5" stroke="black"/>
<path d="M82.2337 92.7153L101.232 92.4987L100.999 72" stroke="black"/>
<path d="M70.648 38.776C67.8 44.376 64.52 49.96 60.808 55.528C62.76 58.376 65.224 61.608 68.2 65.224C71.208 68.808 73.224 71.24 74.248 72.52C74.216 72.872 73.96 73.16 73.48 73.384C73 73.64 72.504 73.768 71.992 73.768C70.936 73.768 69.592 72.856 67.96 71.032C66.36 69.176 64.552 66.76 62.536 63.784C60.52 60.808 59.304 59.048 58.888 58.504C58.344 59.144 57.624 60.184 56.728 61.624C55.832 63.032 54.936 64.408 54.04 65.752C53.176 67.096 52.216 68.44 51.16 69.784C50.104 71.128 48.936 72.2 47.656 73C46.376 73.832 45.096 74.248 43.816 74.248C43.464 74.248 43.192 74.232 43 74.2C45.144 71.704 46.84 69.72 48.088 68.248C51.576 64.056 54.552 60.008 57.016 56.104C55.384 53.992 53.432 51.672 51.16 49.144C48.888 46.616 47.208 44.696 46.12 43.384C45.064 42.04 44.536 41.128 44.536 40.648C44.536 40.136 44.776 39.768 45.256 39.544C45.768 39.32 46.28 39.208 46.792 39.208C47.592 39.208 48.6 39.976 49.816 41.512C51.032 43.016 52.504 45.016 54.232 47.512C55.96 49.976 57.48 51.88 58.792 53.224C59.624 51.88 60.552 50.184 61.576 48.136C62.632 46.088 63.464 44.456 64.072 43.24C64.712 42.024 65.496 40.952 66.424 40.024C67.352 39.064 68.312 38.584 69.304 38.584C69.56 38.584 70.008 38.648 70.648 38.776Z" fill="black"/>
</svg>
