<svg width="347" height="82" viewBox="0 0 347 82" fill="none" xmlns="http://www.w3.org/2000/svg">
<g opacity="0.85">
<path d="M335.2 47.26C323.36 44.63 309.44 44.9 296.93 47.02L297.12 46.75C299.8 42.27 295.02 39.16 290.54 36.49C283.03 32.06 269.6 32.6 260.63 36.4C267.63 26.85 267.3 14.59 255.35 7.13003C243.75 -0.0699682 225.21 1.19002 211.2 2.43002C191.42 4.15002 172.78 9.54003 157.65 19.53C154.773 21.4098 152.048 23.5129 149.5 25.82C147.392 25.4351 145.261 25.1978 143.12 25.11C133.21 24.66 123.24 27.6 114.81 31.29C108.35 34.14 104.42 38.22 103.71 43.37C103.36 43.2952 103.006 43.2385 102.65 43.2C97.1866 42.6781 91.6963 42.4911 86.21 42.64C72.9203 43.058 59.672 44.3441 46.55 46.49C34.55 48.33 23.34 50.49 12.04 54.1C7.69999 55.5 -1.25001 59.75 1.03999 64.16C3.66999 69.26 18.2 68.1 23.36 67.92C34.86 67.51 45.36 64.34 56.22 61.92C55.6728 62.6033 55.3147 63.4183 55.1813 64.2835C55.0479 65.1486 55.1441 66.0337 55.46 66.85C57.11 71.85 67.46 72.5 72.75 72.85C75.9189 72.919 79.0889 72.782 82.24 72.44L91.84 75.23C94.93 77.35 100.65 78.23 103.95 78.75C121.15 81.54 141.76 81.21 158.95 78.3C167.89 76.81 177.32 75.52 185.81 72.75C191.58 70.88 195.54 66.75 198.81 62.84C202.5 65.73 203.91 68.78 209.37 70.43C215.62 72.32 223.49 72.43 230.15 72.78C242.914 73.5697 255.719 72.1488 268 68.58C270.529 67.8181 272.996 66.8654 275.38 65.73C280.82 65.88 286.38 65.57 291.44 65.27C300.17 64.75 308.89 64.69 317.63 64.14C324.55 63.72 332.4 63.72 338.5 60.79C341.28 59.47 344.79 57.45 345.39 54.79C346.34 50.24 340 48.34 335.2 47.26Z" fill="#B48DC0"/>
<path d="M335.37 46.66C322.72 43.91 309.48 44.29 296.77 46.42L297.47 47.34C302.22 40.57 290.01 34.9 285.06 33.69C276.84 31.834 268.247 32.5675 260.46 35.79L261.17 36.71C264.31 32.35 266.33 27.04 265.8 21.6C265.485 18.9504 264.631 16.3933 263.289 14.0869C261.948 11.7804 260.148 9.77346 258 8.19002C247.8 0.300018 233.17 0.410002 220.94 1.08C206.69 1.86 192.48 3.75001 178.94 8.46001C172.312 10.7383 165.943 13.7115 159.94 17.33C156.841 19.2044 153.883 21.3033 151.09 23.61C150.49 24.11 149.83 24.97 149.04 25.1C148.227 25.0696 147.42 24.9557 146.63 24.76C144.639 24.5286 142.635 24.425 140.63 24.45C132.05 24.54 123.63 26.9 115.77 30.22C109.99 32.66 104.18 36.53 103.15 43.22L103.92 42.78C97.53 41.64 90.68 41.89 84.22 42.09C77.22 42.3 70.22 42.86 63.3 43.64C49.8394 45.0225 36.4794 47.2536 23.3 50.32C18.04 51.6 12.58 52.87 7.67001 55.22C4.87001 56.56 0.240014 58.92 0.0500144 62.54C-0.109986 65.77 3.49001 67.3 6.05001 67.93C9.9964 68.7311 14.0305 69.0135 18.05 68.77C23.4577 68.694 28.8538 68.2462 34.2 67.43C41.67 66.2 48.98 64.2 56.36 62.55L55.66 61.63C53.12 65.23 55.13 69.23 58.75 70.95C62.37 72.67 66.9 73.09 71 73.37C73.7912 73.5567 76.5924 73.5333 79.38 73.3C80.3385 73.1458 81.3098 73.0855 82.2801 73.12C82.7988 73.2342 83.3098 73.3812 83.81 73.56C86.37 74.31 89.34 74.78 91.75 75.92C93.9341 77.0199 96.2399 77.859 98.62 78.42C101.07 78.96 103.62 79.35 106.05 79.71C112.195 80.5846 118.385 81.0954 124.59 81.24C137.208 81.4805 149.821 80.5296 162.26 78.4C169.72 77.19 177.26 76.03 184.49 73.83C190.67 71.96 195.16 68.15 199.29 63.29H198.41C202.03 66.19 204.63 69.62 209.24 71.04C214.69 72.72 220.54 72.97 226.24 73.24C238.72 73.82 251.07 73.53 263.24 70.54C266.204 69.8469 269.121 68.9617 271.97 67.89C273.39 67.34 274.8 66.48 276.34 66.4C277.88 66.32 279.62 66.4 281.25 66.4C287.78 66.26 294.25 65.74 300.82 65.51C307.39 65.28 313.91 64.99 320.46 64.65C326.04 64.36 331.86 64.14 337.13 62.09C340.63 60.74 347.13 57.68 345.97 52.89C344.97 48.71 338.89 47.5 335.39 46.7C334.6 46.52 334.27 47.7 335.05 47.9C338.05 48.59 344.57 49.75 344.84 53.74C345.01 56.3 342.26 58.07 340.33 59.17C338.142 60.43 335.785 61.3695 333.33 61.96C328.09 63.22 322.63 63.25 317.33 63.58C311.18 63.94 305.02 64.09 298.87 64.33C293.01 64.56 287.16 65.02 281.31 65.15C279.89 65.15 278.47 65.15 277.05 65.15C275.862 65.0888 274.68 65.3405 273.62 65.88C270.962 67.0143 268.225 67.9535 265.43 68.69C254.071 71.6484 242.32 72.8224 230.6 72.17C224.51 71.9 218.32 71.82 212.35 70.52C209.486 70.0298 206.785 68.8491 204.48 67.08C202.7 65.6 201.18 63.85 199.37 62.4C199.252 62.2852 199.094 62.2209 198.93 62.2209C198.766 62.2209 198.608 62.2852 198.49 62.4C194.87 66.65 190.85 70.48 185.43 72.25C179.537 74.0366 173.521 75.3901 167.43 76.3C155.43 78.3 143.43 79.94 131.25 80.04C120.12 80.14 108.41 79.66 97.59 76.85C95.694 76.2317 93.8429 75.4832 92.05 74.61C91.0218 74.2462 89.9734 73.9424 88.91 73.7L84.39 72.39C83.533 72.0635 82.6269 71.8842 81.71 71.86C78.4886 72.1482 75.2533 72.2517 72.02 72.17C69.702 72.0554 67.3919 71.815 65.1 71.45C60.95 70.74 52.75 68.07 56.86 62.26C57.19 61.78 56.6401 61.26 56.1501 61.34C50.2301 62.66 44.3501 64.21 38.4001 65.41C32.9564 66.5008 27.4367 67.1694 21.89 67.41C18.3796 67.61 14.8605 67.61 11.35 67.41C8.46 67.2 3.66003 66.92 1.88003 64.18C-0.459968 60.6 6.2 57.33 8.6 56.18C13.26 53.99 18.46 52.79 23.43 51.57C35.714 48.6924 48.1598 46.5552 60.7 45.17C67.86 44.31 75.05 43.67 82.26 43.38C85.7 43.24 89.14 43.18 92.58 43.24C96.29 43.1842 99.9984 43.425 103.67 43.96C103.829 44 103.997 43.9764 104.139 43.8942C104.281 43.8121 104.386 43.6778 104.43 43.52C105.43 37.46 110.52 33.87 115.79 31.58C122.678 28.4796 130.03 26.5337 137.55 25.82C141.316 25.5246 145.103 25.6858 148.83 26.3C150.21 26.53 150.58 25.77 151.63 24.87C153.13 23.6 154.7 22.4 156.31 21.27C161.907 17.3841 167.921 14.1372 174.24 11.59C187.02 6.39001 200.58 3.92002 214.24 2.79002C226.24 1.79002 239.41 0.870017 250.78 5.47002C256.84 7.92002 262.45 12.54 264.17 19.07C265.75 25.07 263.69 31.19 260.17 36.07C260.109 36.178 260.081 36.3016 260.089 36.4255C260.098 36.5493 260.143 36.6679 260.219 36.7662C260.295 36.8645 260.398 36.9382 260.516 36.978C260.633 37.0178 260.76 37.022 260.88 36.99C267.693 34.1932 275.138 33.298 282.42 34.4C285.715 34.9142 288.872 36.0912 291.7 37.86C294.63 39.68 299.21 42.8 296.47 46.7C296.13 47.19 296.7 47.7 297.18 47.61C309.66 45.53 322.7 45.15 335.11 47.85C335.82 48 336.15 46.83 335.37 46.66Z" fill="#231F20"/>
<path d="M86 72C84.5969 71.332 83.4043 70.2914 82.5526 68.9916C81.7008 67.6919 81.2225 66.1831 81.17 64.63C81.1507 64.4779 81.0766 64.338 80.9615 64.2366C80.8465 64.1352 80.6983 64.0792 80.545 64.0792C80.3916 64.0792 80.2435 64.1352 80.1285 64.2366C80.0134 64.338 79.9393 64.4779 79.92 64.63C79.9728 66.4013 80.5084 68.1244 81.4689 69.6136C82.4293 71.1027 83.7782 72.3013 85.37 73.08C86.09 73.42 86.72 72.34 86 72Z" fill="#231F20"/>
<path d="M198.68 43.07C197.067 50.3928 197.684 58.0307 200.45 65C200.75 65.73 201.96 65.41 201.66 64.66C198.958 57.9166 198.341 50.5176 199.89 43.42C200.06 42.64 198.89 42.31 198.68 43.09V43.07Z" fill="#231F20"/>
<path d="M259.77 36.13C257.65 37.0596 255.762 38.4475 254.242 40.1939C252.722 41.9403 251.608 44.0017 250.98 46.23C250.958 46.3088 250.952 46.3911 250.963 46.4722C250.973 46.5533 250.999 46.6316 251.039 46.7026C251.079 46.7736 251.133 46.836 251.198 46.8862C251.262 46.9364 251.336 46.9733 251.415 46.995C251.494 47.0167 251.576 47.0226 251.657 47.0125C251.738 47.0024 251.817 46.9763 251.888 46.9359C251.959 46.8956 252.021 46.8415 252.071 46.777C252.121 46.7125 252.158 46.6388 252.18 46.56C252.77 44.4892 253.814 42.5758 255.236 40.9586C256.658 39.3414 258.422 38.0609 260.4 37.21C260.47 37.1687 260.532 37.114 260.581 37.0489C260.63 36.9838 260.666 36.9096 260.686 36.8307C260.707 36.7517 260.711 36.6695 260.7 36.5887C260.689 36.508 260.661 36.4302 260.62 36.36C260.536 36.2182 260.401 36.1148 260.242 36.0718C260.083 36.0289 259.914 36.0497 259.77 36.13Z" fill="#231F20"/>
<path d="M298.54 47.32C296.516 46.6418 294.312 46.746 292.361 47.6123C290.41 48.4785 288.854 50.0439 288 52C287.957 52.1604 287.979 52.3313 288.062 52.4755C288.144 52.6197 288.28 52.7256 288.44 52.77C288.599 52.8107 288.768 52.7888 288.911 52.7088C289.054 52.6288 289.161 52.4967 289.21 52.34C289.965 50.6959 291.304 49.3913 292.968 48.6798C294.631 47.9682 296.5 47.9006 298.21 48.49C298.97 48.77 299.29 47.56 298.54 47.28V47.32Z" fill="#231F20"/>
<path d="M131.69 57.66C129.46 52.93 132.77 47.53 136.97 45.22C142.55 42.15 149.56 43.87 155.23 45.72C155.99 45.97 156.32 44.72 155.56 44.51C149.3 42.51 141.42 40.73 135.49 44.65C131.13 47.55 128.23 53.24 130.61 58.29C130.96 59.02 132.04 58.38 131.69 57.66Z" fill="#231F20"/>
<path d="M179.54 34.83C182.08 31.38 185.42 28.3 189.54 26.89C191.518 26.1633 193.643 25.9265 195.733 26.1999C197.823 26.4733 199.815 27.2488 201.54 28.46C202.18 28.93 202.81 27.85 202.17 27.38C200.304 26.0826 198.154 25.252 195.901 24.9579C193.647 24.6639 191.356 24.9149 189.22 25.69C184.76 27.21 181.22 30.47 178.47 34.2C177.99 34.85 179.07 35.47 179.55 34.83H179.54Z" fill="#231F20"/>
</g>
</svg>
