<svg width="373" height="62" viewBox="0 0 373 62" fill="none" xmlns="http://www.w3.org/2000/svg">
<g opacity="0.8">
<path d="M360.553 37.6872C347.783 35.4972 332.803 35.5372 319.363 37.0572L319.563 36.8472C322.393 33.3772 317.213 30.8472 312.353 28.7472C304.223 25.2072 289.763 25.4672 280.153 28.3272C287.593 20.9472 287.083 11.3272 274.153 5.39722C261.583 -0.362781 241.633 0.397233 226.573 1.20723C205.303 2.31723 185.303 6.30723 169.133 13.9372C166.121 15.3329 163.214 16.9437 160.433 18.7572C158.152 18.4284 155.856 18.2181 153.553 18.1272C142.873 17.6572 132.183 19.8372 123.153 22.6172C116.233 24.7672 112.053 27.9072 111.343 31.9272C110.923 31.8572 110.533 31.8172 110.203 31.7872C104.393 31.2972 98.3532 31.1172 92.4932 31.1472C78.1332 31.2072 63.8732 32.2872 49.8732 33.6972C37.42 34.7992 25.0443 36.6492 12.8132 39.2372C8.1632 40.2372 -1.4268 43.4972 1.0732 46.9572C3.9632 50.9572 19.5932 50.2472 25.1432 50.1672C37.5132 49.9772 48.7932 47.6172 60.4432 45.8672C59.8837 46.3168 59.5001 46.9487 59.3593 47.6525C59.2186 48.3562 59.3297 49.0871 59.6732 49.7172C61.5132 53.6672 72.6732 54.2672 78.3732 54.5872C81.8232 54.7672 85.1632 54.5172 88.5732 54.3772L98.8732 56.6672C102.233 58.3672 108.393 59.0972 111.953 59.5672C131.623 61.8917 151.491 61.9923 171.183 59.8672C180.793 58.7972 190.923 57.8672 200.023 55.8672C206.213 54.4672 210.433 51.2872 213.943 48.2672C217.943 50.5672 219.513 52.9672 225.403 54.3272C232.153 55.8772 240.623 56.0772 247.803 56.4072C261.405 57.1773 275.05 56.2265 288.413 53.5772C291.086 53.0177 293.724 52.3032 296.313 51.4372C302.173 51.6172 308.123 51.4372 313.603 51.2672C322.993 50.9572 332.383 51.0172 341.783 50.6872C349.223 50.4372 357.673 50.5372 364.213 48.3172C367.213 47.3172 370.933 45.7772 371.553 43.7272C372.583 40.1472 365.743 38.5972 360.553 37.6872Z" fill="#B48DC0"/>
<path d="M360.723 37.0872C347.033 34.9631 333.114 34.741 319.363 36.4272L319.803 37.4972C325.533 31.4972 309.753 26.9472 306.053 26.2972C297.371 24.7997 288.462 25.2851 279.993 27.7172L280.603 28.7172C283.743 25.5272 286.183 21.2972 285.483 16.7172C284.683 11.3972 280.113 7.71723 275.593 5.40723C270.153 2.64723 264.043 1.40722 258.033 0.757224C251.13 0.0541674 244.186 -0.159699 237.253 0.117225C222.253 0.537225 207.253 1.75724 192.623 5.23724C185.763 6.82763 179.049 8.99535 172.553 11.7172C169.01 13.198 165.575 14.9256 162.273 16.8872C161.586 17.4664 160.775 17.8803 159.903 18.0972C159.151 18.0616 158.402 17.9713 157.663 17.8272C155.463 17.6072 153.253 17.4972 151.043 17.4772C142.146 17.5402 133.305 18.8875 124.793 21.4772C119.473 23.0372 111.993 25.4772 110.723 31.7672L111.493 31.3272C104.653 30.3272 97.4932 30.4772 90.6532 30.5472C83.2632 30.6272 75.8832 30.9572 68.5132 31.4672C54.3432 32.4672 40.1332 33.8072 26.1032 36.0772C20.2132 37.0272 14.1032 37.9172 8.46322 39.8072C5.90322 40.6472 0.463217 42.2272 0.0232174 45.5072C-0.356783 48.5072 4.02321 49.6072 6.17321 50.0272C10.4655 50.7604 14.8215 51.052 19.1732 50.8972C25.2922 50.909 31.4075 50.5953 37.4932 49.9572C45.2132 49.0672 52.8632 47.6472 60.5432 46.4872L59.9332 45.4372C56.7432 48.8172 60.1332 51.9872 63.4432 53.1472C67.7232 54.6472 72.4432 54.8872 76.9732 55.1472C81.5032 55.4072 86.1832 54.5172 90.6132 55.4972C93.4132 56.1172 96.5132 56.4972 99.1732 57.4972C103.993 59.4172 109.303 59.9072 114.423 60.4972C121.113 61.2672 127.833 61.7072 134.553 61.9072C147.938 62.2246 161.329 61.6299 174.633 60.1272C182.303 59.2972 189.993 58.5272 197.563 57.0172C200.97 56.4299 204.268 55.3273 207.343 53.7472C209.843 52.3269 212.189 50.6513 214.343 48.7472L213.593 48.8372C215.533 49.9772 217.263 51.4172 219.183 52.5772C221.41 53.8633 223.842 54.7532 226.373 55.2072C232.421 56.2399 238.539 56.8016 244.673 56.8872C257.673 57.4572 270.673 57.2972 283.573 55.1172C286.633 54.5972 289.693 53.9972 292.693 53.1872C294.322 52.6037 296.019 52.2339 297.743 52.0872C299.503 52.0872 301.263 52.1372 303.023 52.0872C309.693 52.0872 316.353 51.7372 323.023 51.6272C329.913 51.5172 336.803 51.3972 343.693 51.2072C349.693 51.0372 355.743 51.0272 361.583 49.6672C364.583 48.9772 372.943 46.9972 372.263 42.5672C371.993 40.7672 370.143 39.7472 368.643 39.1072C366.093 38.1259 363.439 37.4381 360.733 37.0572C359.943 36.9172 359.613 38.1172 360.403 38.2572C362.493 38.6272 372.583 39.9872 370.853 43.7772C369.853 45.9072 366.323 46.8972 364.323 47.5872C361.696 48.4463 358.983 49.0196 356.233 49.2972C350.503 49.9672 344.683 49.9472 338.913 50.1072C332.533 50.2772 326.153 50.3072 319.773 50.4372C313.723 50.5572 307.683 50.8372 301.633 50.8372C300.103 50.8372 298.573 50.8372 297.053 50.7772C295.662 50.9119 294.297 51.2488 293.003 51.7772C290.343 52.5272 287.643 53.0872 284.933 53.5872C272.802 55.6736 260.476 56.4014 248.183 55.7572C241.653 55.4772 235.053 55.3472 228.593 54.2672C225.612 53.897 222.726 52.9746 220.083 51.5472C218.083 50.3672 216.293 48.8672 214.293 47.6872C214.172 47.6212 214.034 47.5953 213.897 47.6133C213.76 47.6312 213.633 47.6922 213.533 47.7872C209.383 51.555 204.335 54.1957 198.873 55.4572C192.354 56.765 185.772 57.7396 179.153 58.3772C166.794 59.865 154.361 60.6596 141.913 60.7572C130 60.8925 118.097 60.0127 106.333 58.1272C102.923 57.5272 99.8032 56.2372 96.4532 55.4972C93.8956 54.7889 91.3019 54.218 88.6832 53.7872C87.2648 53.7375 85.8446 53.7876 84.4332 53.9372C82.6132 54.0172 80.8032 54.0572 78.9832 53.9972C76.5832 53.9072 74.1732 53.7372 71.7832 53.4872C69.3932 53.2372 55.9332 51.4872 60.7832 46.3072C60.8592 46.2064 60.9031 46.0851 60.9093 45.959C60.9155 45.8329 60.8836 45.7078 60.8179 45.6C60.7522 45.4922 60.6555 45.4067 60.5406 45.3545C60.4256 45.3023 60.2976 45.2858 60.1732 45.3072C47.9332 47.1572 35.8732 49.3072 23.4532 49.6072C19.5632 49.6872 15.6732 49.7572 11.7832 49.4972C9.73744 49.398 7.70362 49.1271 5.70322 48.6872C4.37322 48.3772 2.70322 47.9672 1.70322 46.9072C-0.936782 43.9772 8.11322 41.2072 9.79322 40.6972C15.2345 39.1976 20.7702 38.0651 26.3632 37.3072C39.5232 35.1572 52.7732 33.8872 65.9932 32.8872C73.4732 32.3272 80.9932 31.9372 88.4632 31.8072C95.9332 31.6772 103.733 31.4672 111.163 32.5172C111.323 32.555 111.492 32.5306 111.635 32.4489C111.778 32.3673 111.884 32.2344 111.933 32.0772C113.123 26.1872 120.473 24.0072 125.443 22.5772C132.727 20.3945 140.249 19.1018 147.843 18.7272C151.583 18.5752 155.329 18.7291 159.043 19.1872C159.592 19.3469 160.17 19.3811 160.733 19.2872C161.492 18.8948 162.21 18.4257 162.873 17.8872C164.393 16.9772 165.963 16.1272 167.553 15.3272C173.634 12.3362 179.977 9.91263 186.503 8.08723C200.233 4.08723 214.443 2.39722 228.683 1.67722C241.233 1.04722 254.353 0.437235 266.683 3.48724C272.683 4.96724 279.753 7.68723 282.993 13.3372C285.933 18.4672 283.533 23.9672 279.703 27.8372C279.627 27.9381 279.583 28.0594 279.577 28.1855C279.571 28.3116 279.603 28.4367 279.669 28.5444C279.734 28.6522 279.831 28.7378 279.946 28.79C280.061 28.8422 280.189 28.8586 280.313 28.8372C287.409 26.8361 294.818 26.1881 302.153 26.9272C305.542 27.1796 308.874 27.9449 312.033 29.1972C314.253 30.1372 322.173 33.1272 318.913 36.5172C318.573 36.8772 318.783 37.6472 319.353 37.5872C332.943 36.0872 346.863 35.9272 360.353 38.1972C361.173 38.4272 361.513 37.2172 360.723 37.0872Z" fill="#231F20"/>
<path d="M214.873 48.0472C212.472 47.195 210.361 45.6806 208.785 43.6792C207.208 41.6778 206.23 39.2711 205.963 36.7372C205.893 35.9372 204.643 35.9272 204.713 36.7372C204.987 39.5432 206.058 42.2122 207.8 44.4289C209.542 46.6457 211.882 48.3176 214.543 49.2472C215.303 49.5072 215.633 48.2472 214.873 48.0472Z" fill="#231F20"/>
<path d="M160.163 18.7472C166.796 20.3985 172.531 24.5564 176.163 30.3472C176.583 31.0272 177.663 30.4072 177.243 29.7172C173.448 23.6514 167.453 19.29 160.513 17.5472C160.354 17.5035 160.184 17.5247 160.041 17.6063C159.897 17.6879 159.792 17.8231 159.748 17.9822C159.704 18.1414 159.726 18.3114 159.807 18.4548C159.889 18.5983 160.024 18.7035 160.183 18.7472H160.163Z" fill="#231F20"/>
<path d="M280.353 28.7872C278.104 28.6759 275.866 29.1589 273.863 30.1876C271.86 31.2163 270.163 32.7545 268.943 34.6472C268.513 35.3272 269.593 35.9572 270.023 35.2772C271.133 33.5738 272.673 32.1927 274.486 31.2728C276.299 30.353 278.323 29.9268 280.353 30.0372C281.163 30.0372 281.163 28.8272 280.353 28.7872Z" fill="#231F20"/>
<path d="M129.323 45.0872C129.063 46.5142 129.093 47.9793 129.414 49.3941C129.734 50.8088 130.338 52.1441 131.188 53.3195C132.038 54.4949 133.118 55.486 134.361 56.2332C135.605 56.9804 136.986 57.4682 138.423 57.6672C139.223 57.7572 139.213 56.5072 138.423 56.4172C137.178 56.2232 135.983 55.7834 134.91 55.1232C133.836 54.4631 132.904 53.5958 132.169 52.5721C131.434 51.5483 130.91 50.3884 130.627 49.1601C130.344 47.9317 130.309 46.6594 130.523 45.4172C130.693 44.6372 129.523 44.2972 129.323 45.0872Z" fill="#231F20"/>
<path d="M219.213 19.4572C222.743 18.9672 226.513 18.4572 229.963 19.5872C231.38 19.9893 232.666 20.7544 233.696 21.8068C234.726 22.8592 235.462 24.1624 235.833 25.5872C235.993 26.3772 237.203 26.0372 237.033 25.2572C236.363 22.0472 233.743 19.7372 230.773 18.6072C226.993 17.1572 222.773 17.7672 218.883 18.2972C218.093 18.4072 218.433 19.6172 219.213 19.5072V19.4572Z" fill="#231F20"/>
</g>
</svg>
