<svg width="288" height="57" viewBox="0 0 288 57" fill="none" xmlns="http://www.w3.org/2000/svg">
<g opacity="0.9" filter="url(#filter0_d_10_34)">
<path d="M274.637 28.7636C265.077 27.1336 253.837 27.2336 243.757 28.4436L243.907 28.2836C246.057 25.6336 242.197 23.7536 238.587 22.1436C232.507 19.4736 221.667 19.7336 214.437 21.9536C220.087 16.3036 219.777 9.01361 210.127 4.51361C200.747 0.183614 185.787 0.843613 174.497 1.51361C158.497 2.44361 143.497 5.5136 131.317 11.4336C129.044 12.5119 126.852 13.7518 124.757 15.1436C123.046 14.899 121.324 14.7488 119.597 14.6936C111.844 14.5623 104.125 15.7596 96.7766 18.2336C91.5566 19.8936 88.3966 22.3036 87.8366 25.3636C87.5166 25.3136 87.2266 25.2836 86.9766 25.2636C82.6266 24.9136 78.0966 24.7936 73.7166 24.8536C62.9566 24.9436 52.2666 25.8536 41.7166 26.9536C32.3573 27.8503 23.0605 29.3096 13.8766 31.3236C10.3866 32.1336 3.1566 34.6236 5.0166 37.2436C7.1366 40.2436 18.8666 39.6736 23.0166 39.5936C32.2966 39.4036 40.7666 37.5936 49.5166 36.1836C49.095 36.5285 48.8044 37.0075 48.6934 37.5407C48.5824 38.074 48.6577 38.6291 48.9066 39.1136C50.2566 42.1136 58.5666 42.5236 62.9066 42.7436C65.4866 42.8736 67.9966 42.6636 70.5566 42.5536L78.3066 44.2536C80.8066 45.5236 85.4166 46.0636 88.0866 46.4036C102.835 48.0986 117.728 48.0986 132.477 46.4036C139.697 45.5536 147.297 44.8336 154.147 43.2336C158.083 42.2042 161.692 40.1912 164.637 37.3836C167.637 39.1336 168.767 40.9436 173.177 41.9536C178.177 43.1036 184.577 43.2336 189.957 43.4536C200.167 43.982 210.404 43.2023 220.417 41.1336C222.448 40.7027 224.452 40.1483 226.417 39.4736C230.807 39.5836 235.277 39.4736 239.417 39.2736C246.417 39.0036 253.497 39.0036 260.547 38.7236C266.127 38.5036 272.467 38.5536 277.377 36.8336C279.617 36.0536 282.437 34.8336 282.927 33.3036C283.627 30.5836 278.517 29.4236 274.637 28.7636Z" fill="#B48DC0"/>
<path d="M274.797 28.1636C264.531 26.5911 254.095 26.4733 243.797 27.8136L244.237 28.8836C248.647 24.1436 236.977 20.6836 233.957 20.1536C227.404 19.0433 220.685 19.4538 214.317 21.3536L214.927 22.3536C217.367 19.8636 219.257 16.5636 218.717 12.9636C218.127 8.96363 214.717 6.11358 211.327 4.35358C207.176 2.39654 202.702 1.21383 198.127 0.863591C192.953 0.35529 187.749 0.221645 182.557 0.463628C171.277 0.833628 159.987 1.83363 149.007 4.53363C143.829 5.77311 138.764 7.44566 133.867 9.53364C131.195 10.6694 128.605 11.9892 126.117 13.4836C125.628 13.8973 125.059 14.207 124.447 14.3936C123.871 14.3908 123.297 14.3237 122.737 14.1936C121.087 14.0436 119.427 13.9636 117.737 13.9636C111.031 14.0504 104.373 15.1184 97.9766 17.1336C93.8666 18.3736 88.2366 20.3236 87.2366 25.1336L88.0066 24.6936C82.7179 24.1105 77.3921 23.9366 72.0766 24.1736C66.5366 24.2636 60.9966 24.5636 55.4666 24.9836C44.8166 25.7936 34.1366 26.8936 23.6066 28.6836C19.144 29.2942 14.7391 30.2708 10.4366 31.6036C8.4866 32.2836 4.1866 33.6036 4.0966 36.2436C4.0266 38.5836 7.3766 39.3636 9.0966 39.6836C12.3444 40.1847 15.6329 40.3722 18.9166 40.2436C23.4311 40.2222 27.9411 39.9551 32.4266 39.4436C38.2166 38.7336 43.9466 37.6236 49.7066 36.7136L49.0966 35.7136C46.6666 38.2736 48.9966 40.8136 51.5866 41.7136C54.7866 42.8836 58.3766 43.0436 61.7466 43.2336C65.1166 43.4236 68.7466 42.7236 72.2066 43.4736C74.3782 43.7859 76.517 44.2947 78.5966 44.9936C82.1766 46.5036 86.3466 46.7736 90.1666 47.1936C95.0966 47.7336 100.057 48.0336 105.007 48.1936C115.049 48.3809 125.093 47.8764 135.067 46.6836C140.927 46.0136 146.807 45.3836 152.587 44.1636C157.24 43.1774 161.55 40.9761 165.077 37.7836L164.317 37.8736C165.767 38.7436 167.057 39.8736 168.487 40.7036C170.154 41.6843 171.983 42.3615 173.887 42.7036C178.415 43.4966 183 43.9313 187.597 44.0036C197.363 44.5517 207.159 44.0455 216.817 42.4936C219.14 42.1138 221.443 41.6165 223.717 41.0036C224.927 40.557 226.191 40.2713 227.477 40.1536C228.787 40.1536 230.117 40.1536 231.427 40.1536C236.427 40.0936 241.427 39.8336 246.427 39.7336C251.597 39.6236 256.757 39.5036 261.927 39.3336C266.417 39.1836 271.007 39.1436 275.397 38.0836C277.767 37.5136 284.097 35.9236 283.577 32.4536C283.087 29.2136 277.287 28.6236 274.857 28.2036C274.077 28.0636 273.737 29.2736 274.527 29.4036C276.037 29.6636 283.427 30.6336 282.207 33.3536C281.497 34.9136 278.827 35.6836 277.377 36.1936C275.431 36.8553 273.419 37.3046 271.377 37.5336C267.077 38.0636 262.707 38.0636 258.377 38.2136C253.597 38.3636 248.807 38.4136 244.027 38.5336C239.487 38.6536 234.957 38.8936 230.417 38.9136C229.277 38.9136 228.127 38.9136 226.987 38.9136C225.924 39.017 224.883 39.2765 223.897 39.6836C221.897 40.2636 219.897 40.6836 217.827 41.0936C208.75 42.7222 199.518 43.326 190.307 42.8936C185.413 42.8458 180.526 42.4918 175.677 41.8336C173.463 41.5719 171.318 40.8932 169.357 39.8336C167.867 38.9336 166.537 37.8336 165.037 36.9036C164.917 36.8384 164.78 36.8129 164.645 36.8309C164.51 36.8489 164.385 36.9094 164.287 37.0036C161.259 39.8034 157.576 41.7978 153.577 42.8036C148.622 43.8561 143.615 44.6406 138.577 45.1536C129.312 46.3447 119.987 47.0124 110.647 47.1536C101.808 47.2883 92.9733 46.6795 84.2366 45.3336C81.6966 44.9036 79.3766 43.9336 76.8866 43.3336C74.8866 42.9036 72.8866 42.2436 70.8866 42.0136C69.8184 41.9687 68.7484 42.0088 67.6866 42.1336C66.3166 42.2036 64.9566 42.2436 63.5866 42.2036C61.7766 42.2036 59.9566 42.0236 58.1566 41.8436C56.3566 41.6636 46.5766 40.4236 50.1066 36.6836C50.1815 36.5834 50.2249 36.4632 50.2312 36.3383C50.2376 36.2134 50.2066 36.0894 50.1423 35.9822C50.0779 35.8749 49.9831 35.7893 49.8699 35.7361C49.7567 35.6829 49.6302 35.6646 49.5066 35.6836C40.2366 37.0036 31.2366 38.7436 21.9666 39.0036C19.1266 39.0836 16.2766 39.1436 13.4366 39.0036C11.8982 38.9434 10.3668 38.7629 8.8566 38.4636C7.71701 38.3364 6.63775 37.8852 5.7466 37.1636C3.8266 35.1636 10.3966 33.0136 11.5766 32.6436C15.6306 31.479 19.7605 30.5969 23.9366 30.0036C33.7366 28.3436 43.6666 27.3136 53.5766 26.5036C59.2766 26.0336 64.9866 25.7036 70.7066 25.5736C76.4266 25.4436 82.1266 25.2336 87.7066 26.0136C87.8657 26.057 88.0354 26.0362 88.1794 25.9558C88.3234 25.8754 88.4301 25.7418 88.4766 25.5836C89.3966 21.1736 94.8566 19.5036 98.5866 18.3936C104.039 16.7082 109.678 15.7006 115.377 15.3936C118.177 15.2582 120.983 15.3586 123.767 15.6936C124.207 15.8021 124.667 15.8021 125.107 15.6936C125.686 15.4178 126.236 15.0827 126.747 14.6936C127.897 13.9936 129.077 13.3436 130.277 12.6936C134.839 10.4027 139.603 8.53489 144.507 7.11359C154.828 4.23182 165.449 2.55399 176.157 2.11359C185.537 1.58359 195.357 1.11362 204.567 3.33362C209.017 4.43362 214.257 6.46362 216.617 10.7036C218.757 14.5636 216.877 18.7036 214.037 21.5836C213.961 21.6845 213.917 21.8058 213.911 21.9319C213.904 22.058 213.936 22.1831 214.002 22.2908C214.068 22.3986 214.164 22.4841 214.279 22.5363C214.394 22.5885 214.522 22.605 214.647 22.5836C219.935 21.0313 225.469 20.4952 230.957 21.0036C233.465 21.1809 235.93 21.7442 238.267 22.6736C239.887 23.3636 245.617 25.5136 243.267 27.9836C242.937 28.3436 243.137 29.1236 243.707 29.0536C253.907 27.718 264.244 27.8189 274.417 29.3536C275.257 29.4936 275.597 28.2936 274.797 28.1636Z" fill="#231F20"/>
<path d="M124.717 15.2336C128.6 16.0852 132.065 18.2634 134.517 21.3936C134.602 21.5334 134.738 21.6352 134.896 21.678C135.054 21.7208 135.222 21.7013 135.367 21.6236C135.509 21.5381 135.613 21.4006 135.656 21.2401C135.699 21.0796 135.677 20.9088 135.597 20.7636C132.992 17.35 129.273 14.9579 125.087 14.0036C124.297 13.8336 123.967 15.0036 124.757 15.2036L124.717 15.2336Z" fill="#231F20"/>
<path d="M87.2266 27.2636C89.2536 27.0254 91.3004 27.499 93.0166 28.6036C93.6966 29.0436 94.3166 27.9636 93.6466 27.5236C91.744 26.2963 89.4775 25.7597 87.2266 26.0036C87.0629 26.0111 86.908 26.0802 86.793 26.197C86.6781 26.3139 86.6115 26.4698 86.6066 26.6336C86.6092 26.7973 86.6753 26.9535 86.791 27.0692C86.9068 27.1849 87.063 27.251 87.2266 27.2536V27.2636Z" fill="#231F20"/>
<path d="M103.847 40.0036C106.39 37.4526 109.717 35.8301 113.293 35.3967C116.869 34.9633 120.487 35.744 123.567 37.6136C124.257 38.0436 124.877 36.9636 124.197 36.5336C120.879 34.5247 116.983 33.6879 113.134 34.1576C109.284 34.6272 105.704 36.376 102.967 39.1236C102.407 39.7036 103.287 40.5836 103.847 40.0036Z" fill="#231F20"/>
<path d="M181.407 21.5736C184.542 20.7137 187.876 20.937 190.868 22.2074C193.861 23.4777 196.337 25.7208 197.897 28.5736C198.267 29.2836 199.347 28.6536 198.977 27.9436C197.283 24.8474 194.595 22.4118 191.348 21.0295C188.101 19.6471 184.482 19.3984 181.077 20.3236C180.93 20.3791 180.81 20.4872 180.739 20.6267C180.667 20.7663 180.651 20.9274 180.692 21.0785C180.733 21.2296 180.829 21.3599 180.961 21.4441C181.094 21.5282 181.252 21.5601 181.407 21.5336V21.5736Z" fill="#231F20"/>
</g>
<defs>
<filter id="filter0_d_10_34" x="0.09552" y="0.34668" width="287.511" height="55.885" filterUnits="userSpaceOnUse" color-interpolation-filters="sRGB">
<feFlood flood-opacity="0" result="BackgroundImageFix"/>
<feColorMatrix in="SourceAlpha" type="matrix" values="0 0 0 0 0 0 0 0 0 0 0 0 0 0 0 0 0 0 127 0" result="hardAlpha"/>
<feOffset dy="4"/>
<feGaussianBlur stdDeviation="2"/>
<feComposite in2="hardAlpha" operator="out"/>
<feColorMatrix type="matrix" values="0 0 0 0 0 0 0 0 0 0 0 0 0 0 0 0 0 0 0.25 0"/>
<feBlend mode="normal" in2="BackgroundImageFix" result="effect1_dropShadow_10_34"/>
<feBlend mode="normal" in="SourceGraphic" in2="effect1_dropShadow_10_34" result="shape"/>
</filter>
</defs>
</svg>
