<svg width="108" height="112" viewBox="0 0 108 112" fill="none" xmlns="http://www.w3.org/2000/svg">
<path d="M53.7401 105.17C79.9736 105.17 101.24 83.9035 101.24 57.6699C101.24 31.4364 79.9736 10.1699 53.7401 10.1699C27.5065 10.1699 6.24005 31.4364 6.24005 57.6699C6.24005 83.9035 27.5065 105.17 53.7401 105.17Z" stroke="#010101" stroke-width="12" stroke-miterlimit="10"/>
<path d="M53.5701 104.13C79.8036 104.13 101.07 82.8635 101.07 56.63C101.07 30.3965 79.8036 9.13 53.5701 9.13C27.3365 9.13 6.07007 30.3965 6.07007 56.63C6.07007 82.8635 27.3365 104.13 53.5701 104.13Z" stroke="#239B9B" stroke-width="8" stroke-miterlimit="10"/>
<path d="M53.5701 102.91C79.8036 102.91 101.07 81.6434 101.07 55.4099C101.07 29.1764 79.8036 7.90991 53.5701 7.90991C27.3365 7.90991 6.07007 29.1764 6.07007 55.4099C6.07007 81.6434 27.3365 102.91 53.5701 102.91Z" stroke="#3B493C" stroke-width="8" stroke-miterlimit="10"/>
<path d="M53.5701 101.18C79.8036 101.18 101.07 79.9135 101.07 53.6799C101.07 27.4464 79.8036 6.17993 53.5701 6.17993C27.3365 6.17993 6.07007 27.4464 6.07007 53.6799C6.07007 79.9135 27.3365 101.18 53.5701 101.18Z" stroke="#431146" stroke-width="8" stroke-miterlimit="10"/>
<path d="M35.5301 52.5399C35.5152 52.7163 35.5152 52.8936 35.5301 53.0699C35.5387 53.1596 35.5213 53.2498 35.4801 53.3299C35.4101 53.1799 35.2501 52.7699 35.3601 52.6099C35.4701 52.4499 35.7801 52.5099 35.8901 52.5599C36.0001 52.6099 35.9501 53.7299 35.9801 53.7199H36.0501V53.1199C36.0447 53.0534 36.0447 52.9865 36.0501 52.9199C36.056 52.8004 36.0796 52.6825 36.1201 52.5699C36.1701 52.5099 36.3101 52.5699 36.3901 52.5699C36.4701 52.5699 36.8301 52.5699 37.0501 52.5699C37.2701 52.5699 37.3301 52.5699 37.3701 52.7099C37.3901 52.8894 37.3901 53.0705 37.3701 53.2499C37.3549 53.3191 37.3549 53.3907 37.3701 53.4599C37.3701 53.4599 37.4201 53.5399 37.4401 53.5899C37.4601 53.6399 37.4401 53.8999 37.3601 54.0499C37.3601 54.0499 37.4501 54.0499 37.4901 54.0499C37.5558 53.988 37.6056 53.9111 37.6352 53.8258C37.6648 53.7405 37.6734 53.6492 37.6601 53.5599C37.6448 53.4854 37.6247 53.4119 37.6001 53.3399C37.6001 53.1899 37.4701 52.7999 37.6001 52.6599C37.7301 52.5199 38.0301 52.6599 38.1701 52.7599C38.8101 53.0499 38.7401 53.7599 38.6701 54.3699C38.6174 54.701 38.584 55.0349 38.5701 55.3699C38.5741 55.5273 38.6152 55.6815 38.6901 55.8199C38.7691 56.0201 38.8033 56.2351 38.7901 56.4499V62.2499C38.7779 62.539 38.822 62.8277 38.9201 63.0999C38.9575 63.2113 39.0308 63.3071 39.1285 63.3722C39.2263 63.4374 39.3429 63.4682 39.4601 63.4599C39.4863 63.4569 39.5115 63.4482 39.534 63.4344C39.5565 63.4206 39.5756 63.402 39.5901 63.3799C39.5949 63.3501 39.5949 63.3197 39.5901 63.2899C39.5901 62.6199 39.5301 61.9499 39.5901 61.2899C39.5901 61.0199 39.5901 60.7599 39.5901 60.4899C39.5901 60.2199 39.5201 59.8199 39.4801 59.4899C39.3901 58.6199 39.4801 57.7499 39.4801 56.8899C39.4801 56.4599 39.3801 56.0399 39.3501 55.6199C39.3704 55.2461 39.4802 54.8826 39.6701 54.5599C39.9411 53.9568 40.1197 53.3163 40.2001 52.6599C40.2001 52.2399 39.9801 51.7899 39.9801 51.3399C39.9801 50.5699 40.2301 49.3399 41.2201 49.3399C43.0201 49.3399 44.4601 53.6699 44.4601 59.1599C44.4601 64.6499 43.6001 69.1599 42.0301 72.2199C41.7326 72.8786 41.2879 73.4603 40.7301 73.9199C40.3337 74.2134 39.9121 74.4711 39.4701 74.6899C37.8501 75.5399 37.2201 76.6199 36.4701 79.6899C35.93 81.6872 35.5686 83.7286 35.3901 85.7899C35.3901 87.3399 36.2901 88.5699 37.3901 88.5699C37.9926 88.5586 38.5871 88.4295 39.1401 88.1899C40.316 87.7194 41.5644 87.4555 42.8301 87.4099C44.1807 87.451 45.5152 87.7145 46.7801 88.1899C47.2643 88.3943 47.7845 88.4997 48.3101 88.4999C48.6594 88.5067 49.0023 88.4057 49.2922 88.2107C49.5821 88.0157 49.8048 87.7361 49.9301 87.4099C50.7801 86.0199 51.5901 81.6199 51.5901 78.5299C51.6386 77.9815 51.5444 77.43 51.3166 76.9288C51.0888 76.4276 50.7351 75.9939 50.2901 75.6699C49.7926 75.2445 49.4029 74.7075 49.1526 74.1027C48.9023 73.4979 48.7987 72.8424 48.8501 72.1899C48.8501 71.7999 48.8501 71.1099 48.9401 70.4099C49.4137 65.7623 50.1482 61.1451 51.1401 56.5799C52.4401 50.8599 54.2401 48.3099 57.0301 48.3099C57.6334 48.3206 58.2337 48.3977 58.8201 48.5399C60.1792 48.9566 61.5818 49.215 63.0001 49.3099C67.2701 49.3099 70.6901 42.3099 70.6901 33.6299C70.7956 31.9924 70.5076 30.3534 69.8501 28.8499C69.7401 28.6299 69.4601 28.3899 69.4001 28.1599C69.3401 27.9299 69.4901 27.3799 69.4001 27.0099C69.3262 26.5385 69.1264 26.0958 68.8218 25.7286C68.5171 25.3613 68.119 25.0831 67.6694 24.9233C67.2198 24.7636 66.7354 24.7281 66.2673 24.8208C65.7992 24.9135 65.3649 25.1309 65.0101 25.4499C64.8376 24.9109 64.5496 24.416 64.1662 23.9998C63.7828 23.5835 63.3131 23.256 62.7901 23.0399C61.7326 22.6231 60.5833 22.4954 59.4601 22.6699C58.5272 22.7545 57.6238 23.0406 56.8123 23.5085C56.0008 23.9764 55.3006 24.6149 54.7601 25.3799C54.3807 26.206 53.9004 26.982 53.3301 27.6899C52.2301 28.7399 50.4501 28.5999 49.0301 28.0499C47.6785 27.3518 46.2701 26.7697 44.8201 26.3099C43.6508 26.1423 42.4582 26.2613 41.3451 26.6567C40.2319 27.0521 39.2316 27.7121 38.4301 28.5799C36.8411 30.3174 35.62 32.3583 34.8401 34.5799C34.5736 35.6091 33.9268 36.4989 33.0301 37.0699C31.6201 37.6899 30.1101 36.5899 28.6201 36.1899C27.8326 35.9788 27.0042 35.9725 26.2137 36.1718C25.4232 36.3711 24.6967 36.7692 24.1034 37.3284C23.5102 37.8876 23.0698 38.5893 22.8242 39.3667C22.5785 40.1441 22.5358 40.9714 22.7001 41.7699C22.7561 42.1126 22.85 42.448 22.9801 42.7699C23.0601 42.9699 23.3801 43.3499 23.3701 43.5599C23.3601 43.7699 23.0001 44.1899 22.9301 44.4599C22.8515 44.7327 22.8177 45.0163 22.8301 45.2999C22.8738 45.8648 23.0195 46.417 23.2601 46.9299C23.7675 47.9955 24.3913 49.0016 25.1201 49.9299C25.6472 50.6693 26.2252 51.3711 26.8501 52.0299L27.0801 52.2499C27.1743 52.2982 27.2617 52.3587 27.3401 52.4299C27.4001 52.5099 27.3401 52.6599 27.3401 52.7599C27.3401 52.8599 27.3401 53.0199 27.3401 53.1599C27.3401 53.6899 27.3401 54.2299 27.3401 54.7599C27.3371 54.9354 27.3136 55.1099 27.2701 55.2799C27.2597 55.3361 27.2597 55.3937 27.2701 55.4499C27.2693 55.4798 27.2788 55.509 27.297 55.5327C27.3152 55.5564 27.341 55.573 27.3701 55.5799C27.4701 55.5799 27.5201 55.4799 27.5401 55.3899C27.5801 54.9041 27.5801 54.4158 27.5401 53.9299C27.5556 53.6766 27.5958 53.4254 27.6601 53.1799L27.7501 52.8199C27.7546 52.7527 27.7751 52.6875 27.8101 52.6299C27.8101 52.5799 27.8101 52.6299 27.9101 52.6299C28.1701 52.6299 28.4301 52.6299 28.7001 52.6299C28.7601 52.6299 28.9401 52.6299 29.0001 52.6299C29.0601 52.6299 29.0001 52.9099 29.0001 52.9799C29.0012 53.2382 28.9777 53.496 28.9301 53.7499C28.9301 54.0499 28.7801 54.3399 28.7101 54.6399C28.5701 55.1799 28.4801 55.7199 28.3901 56.2699C28.1645 57.3308 28.0971 58.4193 28.1901 59.4999C28.2701 60.1399 28.4701 60.7699 28.5101 61.4199C28.5101 61.7799 28.5101 62.1399 28.5101 62.4999C28.5538 63.0622 28.7358 63.605 29.0401 64.0799L29.2501 63.2399C29.3379 62.9691 29.3719 62.6838 29.3501 62.3999C29.3501 62.2599 29.2901 62.1099 29.2601 61.9699C29.2101 61.5699 29.3401 61.1599 29.3301 60.7599C29.2834 60.3365 29.1861 59.9201 29.0401 59.5199C28.9172 59.0228 28.8934 58.5063 28.9701 57.9999C28.9701 57.7099 29.0801 57.4199 29.1201 57.1299C29.1349 56.8635 29.1349 56.5964 29.1201 56.3299C29.1501 55.5643 29.2881 54.8069 29.5301 54.0799C29.6483 53.7136 29.7919 53.3561 29.9601 53.0099C30.0201 52.8999 30.1101 52.6099 30.2201 52.5499C30.3301 52.4899 30.6501 52.5499 30.7701 52.5499C30.8901 52.5499 31.1601 52.4899 31.1601 52.7299V53.5199C31.1548 53.5631 31.1548 53.6068 31.1601 53.6499C31.169 53.6695 31.1829 53.6863 31.2005 53.6986C31.2181 53.7109 31.2387 53.7183 31.2601 53.7199C31.3101 53.7199 31.3401 53.7199 31.3501 53.6199C31.3592 53.5737 31.3592 53.5261 31.3501 53.4799C31.3354 53.337 31.3354 53.1929 31.3501 53.0499C31.3501 52.9499 31.3501 52.6799 31.3501 52.5999C31.3501 52.5199 31.6501 52.5299 31.7201 52.5999C31.7847 52.6368 31.8394 52.6889 31.8794 52.7516C31.9195 52.8143 31.9437 52.8858 31.9501 52.9599C31.9501 52.9599 31.9501 52.7799 32.0301 52.7199C32.1101 52.6599 32.1201 52.6399 32.2501 52.6499H32.9201C33.1055 52.6199 33.2946 52.6199 33.4801 52.6499C33.5901 52.6499 33.6401 52.8999 33.6301 53.0099C33.6198 53.1215 33.5997 53.2319 33.5701 53.3399C33.5436 53.4718 33.5269 53.6055 33.5201 53.7399C33.4902 54.156 33.4902 54.5738 33.5201 54.9899C33.5201 55.3899 33.5201 55.7999 33.5201 56.1999C33.5201 56.7599 33.5201 57.3099 33.5201 57.8699C33.4951 58.2395 33.4951 58.6103 33.5201 58.9799C33.5801 59.6199 33.8201 60.2299 33.8301 60.8699C33.8811 60.8137 33.9192 60.7469 33.9417 60.6743C33.9641 60.6018 33.9704 60.5252 33.9601 60.4499C33.9286 60.3021 33.8817 60.158 33.8201 60.0199C33.5664 59.4841 33.4961 58.8797 33.6201 58.2999C33.7365 57.9726 33.8333 57.6387 33.9101 57.2999C33.9253 56.9905 33.895 56.6805 33.8201 56.3799C33.7703 56.0856 33.7403 55.7883 33.7301 55.4899C33.7301 55.2299 33.7301 54.9399 33.7301 54.6899C33.6946 54.4747 33.6946 54.2551 33.7301 54.0399C33.7984 53.8843 33.8552 53.7239 33.9001 53.5599C33.8933 53.4321 33.8766 53.3051 33.8501 53.1799C33.8298 52.9952 33.8798 52.8095 33.9901 52.6599C34.1001 52.5599 34.3401 52.6599 34.4901 52.6599H35.1201H35.2801" fill="#010101"/>
<path d="M81.3501 47.24C79.5801 47.24 76.9101 49.63 74.9201 52.97C72.3701 57.22 70.5601 62.21 68.7201 69.88C68.1901 72.14 67.7201 72.96 66.8501 72.96C66.2201 72.96 65.7701 72.23 65.7701 71.18C65.7422 70.5778 65.8572 69.9775 66.1057 69.4283C66.3543 68.8791 66.7293 68.3965 67.2001 68.02C67.652 67.7585 68.0547 67.4201 68.3901 67.02C68.6677 65.2977 68.7916 63.5542 68.7601 61.81C68.6701 61.41 60.9701 51.3 59.4401 50.2C58.7701 50.84 53.4401 57.95 53.4401 58.2C53.3501 62.06 53.6101 65.91 53.6101 69.75C53.6101 73.87 55.2401 76.99 57.4401 76.99C59.1801 76.99 60.5101 74.87 60.5101 72.09C60.5389 71.1755 60.3396 70.2682 59.9301 69.45C59.7301 69.1 59.6301 68.93 59.6101 68.88C59.4979 68.6526 59.4365 68.4035 59.4301 68.15C59.4301 67.54 59.7801 66.97 60.1401 66.97C61.0901 66.97 61.9501 69.36 61.9501 72.05C62.0154 74.704 61.5426 77.3437 60.5601 79.81C60.3918 80.1922 60.1428 80.5333 59.8301 80.81C59.6096 80.9733 59.3754 81.1171 59.1301 81.24C58.2201 81.72 57.8701 82.32 57.4401 84.06C57.1379 85.1801 56.9338 86.3245 56.8301 87.48C56.8301 88.35 57.3401 89.05 57.9701 89.05C58.3143 89.0401 58.6535 88.9655 58.9701 88.83C59.6086 88.5778 60.2843 88.4325 60.9701 88.4C61.6712 88.4298 62.3662 88.544 63.0401 88.74C63.3657 88.8541 63.7001 88.941 64.0401 89C64.3701 89 64.6201 88.79 64.8501 88.4C65.5013 86.813 65.8408 85.1154 65.8501 83.4C65.8719 83.089 65.8135 82.7776 65.6804 82.4957C65.5473 82.2138 65.344 81.9708 65.0901 81.79C64.8038 81.5466 64.5806 81.2377 64.4396 80.8894C64.2986 80.5412 64.2438 80.164 64.2801 79.79C64.2801 78.1 64.9101 76.79 65.7401 76.79C66.5701 76.79 67.0301 77.79 67.0301 79.22C67.0301 79.56 67.0301 80.09 66.9801 80.69C66.8801 81.95 66.8301 82.99 66.8301 83.9C66.8301 87.33 68.1401 89.71 70.0301 89.71C71.7201 89.71 73.1301 87.24 73.1301 84.16C73.1301 82.86 72.9101 82.25 72.3301 81.99L71.9201 81.82C71.2901 81.56 70.7901 80.17 70.7901 78.7C70.9987 73.0565 72.1688 67.4899 74.2501 62.24C75.4601 59.16 77.5501 56.91 79.3201 56.82L80.8801 56.73C82.8801 56.6 84.3101 54.65 84.3101 52.01C84.3101 49.37 83.0401 47.24 81.3501 47.24ZM60.8601 57.31C60.8101 58.16 60.8601 61.88 60.6401 62.86C60.2401 62.48 58.6401 62.97 58.4401 63.25C57.9618 62.6123 57.7022 61.8371 57.7001 61.04C57.7001 60.26 57.7001 57.58 57.7001 57.04C57.7001 56.77 58.6301 54.94 58.9001 54.97C59.3044 54.9429 59.707 55.0444 60.0501 55.26C60.4098 55.6782 60.7124 56.1422 60.9501 56.64C60.8901 56.84 60.8701 57.07 60.8601 57.3V57.31Z" fill="#010101"/>
<path d="M35.51 50.44C35.495 50.613 35.495 50.787 35.51 50.96C35.5198 51.0497 35.5024 51.1403 35.4601 51.22C35.3901 51.08 35.2301 50.67 35.3401 50.51C35.4501 50.35 35.7601 50.4 35.8701 50.51C35.9801 50.62 35.9301 51.67 35.9601 51.67H36.0201V51.06C36.0106 50.9936 36.0106 50.9263 36.0201 50.86C36.0269 50.7439 36.0505 50.6293 36.0901 50.52C36.0901 50.46 36.2801 50.52 36.3601 50.52H37.0201C37.1801 50.52 37.3001 50.52 37.3401 50.65C37.36 50.8328 37.36 51.0172 37.3401 51.2C37.3255 51.2692 37.3255 51.3407 37.3401 51.41L37.4101 51.53C37.4701 51.68 37.4101 51.84 37.3301 51.99C37.3301 52.04 37.4201 51.99 37.4601 51.99C37.5258 51.9281 37.5756 51.8512 37.6052 51.7658C37.6348 51.6805 37.6433 51.5893 37.6301 51.5C37.6146 51.4222 37.5946 51.3454 37.5701 51.27C37.5201 51.12 37.4401 50.73 37.5701 50.6C37.7001 50.47 38.0001 50.6 38.1401 50.69C38.7801 50.99 38.7101 51.69 38.6401 52.31C38.582 52.6404 38.5486 52.9746 38.54 53.31C38.5441 53.4673 38.5852 53.6215 38.6601 53.76C38.7383 53.9568 38.7724 54.1685 38.76 54.38V60.19C38.7451 60.4784 38.7859 60.767 38.8801 61.04C38.9208 61.1512 38.9963 61.2463 39.0954 61.3112C39.1945 61.376 39.3118 61.4072 39.43 61.4C39.4567 61.3946 39.482 61.3838 39.5043 61.3684C39.5267 61.3529 39.5456 61.333 39.5601 61.31C39.5655 61.2802 39.5655 61.2497 39.5601 61.22C39.5601 60.56 39.5 59.89 39.51 59.22C39.51 58.95 39.51 58.68 39.51 58.42C39.51 58.16 39.43 57.74 39.4 57.42C39.31 56.55 39.4 55.68 39.4 54.81C39.4 54.38 39.3001 53.97 39.2701 53.54C39.2934 53.1667 39.4029 52.8038 39.5901 52.48C39.8623 51.8808 40.041 51.2433 40.1201 50.59C40.1201 50.17 39.9 49.72 39.9 49.27C39.9 48.49 40.1501 47.27 41.1401 47.27C42.9401 47.27 44.3701 51.6 44.3701 57.09C44.3701 62.58 43.5201 67.09 41.9501 70.15C41.6529 70.8116 41.2041 71.394 40.6401 71.85C40.2469 72.143 39.8286 72.4007 39.3901 72.62C37.7701 73.47 37.1401 74.55 36.3901 77.62C35.8504 79.6208 35.489 81.6654 35.3101 83.73C35.3101 85.27 36.2101 86.51 37.3101 86.51C37.9131 86.494 38.5073 86.3615 39.0601 86.12C40.2366 85.6529 41.4849 85.3924 42.7501 85.35C44.0997 85.3914 45.4337 85.6515 46.7001 86.12C47.1827 86.3292 47.704 86.4348 48.2301 86.43C48.5782 86.4375 48.9203 86.338 49.21 86.1449C49.4997 85.9517 49.7231 85.6742 49.8501 85.35C50.7001 83.96 51.51 79.55 51.51 76.46C51.5566 75.9118 51.4615 75.3609 51.2338 74.8601C51.0062 74.3592 50.6537 73.9253 50.2101 73.6C49.7128 73.1766 49.323 72.6414 49.0727 72.0382C48.8223 71.435 48.7186 70.781 48.7701 70.13C48.7701 69.74 48.7701 69.04 48.8601 68.35C49.3329 63.7023 50.0674 59.085 51.0601 54.52C52.3601 48.8 54.16 46.25 56.9501 46.25C57.5537 46.2556 58.1546 46.3328 58.7401 46.48C60.0991 46.8966 61.5017 47.155 62.9201 47.25C67.1901 47.25 70.6101 40.25 70.6101 31.56C70.7163 29.9256 70.4282 28.2897 69.7701 26.79C69.6601 26.57 69.3801 26.32 69.3201 26.1C69.2601 25.88 69.4001 25.32 69.3201 24.95C69.2682 24.5959 69.147 24.2555 68.9634 23.9484C68.7798 23.6412 68.5374 23.3733 68.2501 23.16C67.7555 22.8493 67.175 22.7042 66.5925 22.7455C66.0099 22.7869 65.4557 23.0126 65.01 23.39C64.8388 22.8503 64.5513 22.3548 64.1677 21.9384C63.7841 21.522 63.3138 21.1948 62.79 20.98C61.7338 20.5583 60.5831 20.4305 59.4601 20.61C58.5272 20.6945 57.6238 20.9806 56.8123 21.4485C56.0008 21.9164 55.3006 22.555 54.76 23.32C54.3807 24.1461 53.9003 24.922 53.3301 25.63C52.2301 26.63 50.4401 26.54 49.0301 25.99C47.6691 25.2871 46.2506 24.7017 44.79 24.24C43.6209 24.0766 42.4296 24.1976 41.3172 24.5928C40.2048 24.988 39.2041 25.6456 38.4 26.51C36.8152 28.2506 35.5946 30.2906 34.8101 32.51C34.5458 33.543 33.8941 34.4346 32.9901 35C31.5901 35.63 30.0801 34.52 28.5901 34.13C27.8026 33.9188 26.9742 33.9126 26.1837 34.1118C25.3931 34.3111 24.6667 34.7093 24.0734 35.2685C23.4801 35.8277 23.0398 36.5293 22.7941 37.3067C22.5485 38.0841 22.5058 38.9114 22.6701 39.71C22.7282 40.0327 22.8221 40.348 22.9501 40.65C23.0301 40.86 23.3501 41.24 23.3401 41.45C23.3301 41.66 22.9701 42.08 22.9001 42.34C22.822 42.6128 22.7882 42.8964 22.8001 43.18C22.8426 43.7482 22.9883 44.304 23.2301 44.82C23.7375 45.8855 24.3613 46.8916 25.0901 47.82C25.6196 48.5575 26.1976 49.259 26.8201 49.92C26.9001 49.99 26.9701 50.07 27.0501 50.13C27.1301 50.19 27.2601 50.25 27.3101 50.32C27.3601 50.39 27.3101 50.55 27.3101 50.64C27.3101 50.73 27.3101 50.91 27.3101 51.04C27.3101 51.58 27.3101 52.12 27.3101 52.65C27.3071 52.8222 27.2836 52.9934 27.2401 53.16C27.2302 53.2196 27.2302 53.2804 27.2401 53.34C27.2392 53.3698 27.2488 53.3991 27.267 53.4227C27.2852 53.4464 27.311 53.4631 27.3401 53.47C27.4401 53.47 27.4901 53.37 27.5101 53.27C27.55 52.7875 27.55 52.3025 27.5101 51.82C27.524 51.5665 27.5642 51.3151 27.6301 51.07L27.7201 50.71C27.726 50.6443 27.7429 50.5801 27.7701 50.52C27.7701 50.46 27.7701 50.52 27.8801 50.52C28.1401 50.52 28.4001 50.52 28.6601 50.52C28.7301 50.52 28.9101 50.52 28.9701 50.52C29.0301 50.52 28.9701 50.8 28.9701 50.86C28.972 51.1183 28.9486 51.3762 28.9001 51.63C28.9001 51.94 28.7501 52.23 28.6801 52.53C28.5401 53.06 28.4501 53.61 28.3601 54.15C28.1335 55.2141 28.0661 56.306 28.1601 57.39C28.2401 58.03 28.4401 58.66 28.4701 59.31C28.4701 59.67 28.4701 60.03 28.4701 60.39C28.5091 60.9532 28.6915 61.4971 29.0001 61.97L29.1901 61.21C29.2774 60.9391 29.3114 60.6538 29.2901 60.37C29.2901 60.22 29.2301 60.08 29.2001 59.93C29.2001 59.53 29.2801 59.13 29.2701 58.73C29.2222 58.3035 29.1249 57.884 28.9801 57.48C28.8583 56.9828 28.8311 56.4672 28.9001 55.96C28.9001 55.67 29.0201 55.39 29.0601 55.09C29.1001 54.79 29.0601 54.56 29.0601 54.29C29.0917 53.5246 29.2297 52.7673 29.4701 52.04C29.5839 51.6754 29.7277 51.3208 29.9001 50.98C29.9001 50.87 30.0501 50.58 30.1601 50.52C30.3417 50.4851 30.5284 50.4851 30.7101 50.52C30.9101 50.52 31.1001 50.46 31.1001 50.7V51.49C31.0951 51.5332 31.0951 51.5768 31.1001 51.62C31.1104 51.6384 31.1247 51.6543 31.142 51.6664C31.1593 51.6786 31.1792 51.6866 31.2001 51.69C31.2233 51.6842 31.2443 51.6716 31.2604 51.6538C31.2764 51.6359 31.2868 51.6137 31.2901 51.59C31.3004 51.5439 31.3004 51.4961 31.2901 51.45C31.2532 51.3063 31.2364 51.1582 31.2401 51.01C31.2101 50.8648 31.2101 50.7151 31.2401 50.57C31.3001 50.49 31.5401 50.5 31.6201 50.57C31.6847 50.6069 31.7393 50.6589 31.7794 50.7217C31.8194 50.7844 31.8437 50.8558 31.8501 50.93C31.8501 50.93 31.8501 50.75 31.9301 50.68C32.0101 50.61 32.0201 50.61 32.1501 50.61H32.8201C33.0059 50.5849 33.1942 50.5849 33.3801 50.61C33.4338 50.6544 33.4756 50.7114 33.5018 50.776C33.528 50.8406 33.5377 50.9107 33.5301 50.98C33.5207 51.0884 33.5006 51.1955 33.4701 51.3C33.4603 51.4365 33.4603 51.5735 33.4701 51.71C33.4451 52.1263 33.4451 52.5437 33.4701 52.96C33.495 53.3629 33.495 53.767 33.4701 54.17C33.4701 54.72 33.4701 55.28 33.4701 55.83C33.4451 56.2029 33.4451 56.5771 33.4701 56.95C33.5301 57.58 33.7701 58.2 33.7801 58.83C33.8309 58.7756 33.8689 58.7106 33.8914 58.6397C33.9139 58.5687 33.9203 58.4937 33.9101 58.42C33.8797 58.2705 33.8292 58.1259 33.76 57.99C33.514 57.4518 33.4474 56.8488 33.5701 56.27C33.6865 55.9427 33.7833 55.6088 33.8601 55.27C33.8747 54.9573 33.8444 54.6441 33.7701 54.34C33.7214 54.0452 33.688 53.7482 33.6701 53.45C33.6849 53.1868 33.6849 52.9231 33.6701 52.66C33.6301 52.4418 33.6301 52.2182 33.6701 52C33.7415 51.8456 33.7984 51.6849 33.8401 51.52C33.8401 51.4 33.8401 51.27 33.8401 51.15C33.8198 50.9652 33.8697 50.7796 33.9801 50.63C34.0901 50.53 34.3301 50.63 34.4801 50.63H35.1101H35.2701" fill="#239B9B"/>
<path d="M81.3301 45.13C79.5601 45.13 76.8901 47.52 74.9001 50.86C72.3501 55.11 70.5401 60.09 68.6901 67.77C68.1701 70.03 67.6901 70.85 66.8301 70.85C66.2001 70.85 65.7401 70.11 65.7401 69.07C65.7134 68.467 65.8299 67.8662 66.0802 67.3169C66.3305 66.7676 66.7074 66.2855 67.1801 65.91C67.632 65.6486 68.0347 65.3101 68.3701 64.91C68.648 63.1912 68.7719 61.4509 68.7401 59.71C68.6501 59.31 60.9501 49.2 59.4201 48.09C58.7501 48.74 53.4201 55.85 53.4201 56.09C53.3301 59.94 53.5801 63.8 53.5801 67.64C53.5801 71.76 55.2201 74.88 57.4201 74.88C59.1601 74.88 60.4901 72.75 60.4901 69.98C60.5177 69.0624 60.3184 68.1522 59.9101 67.33L59.5901 66.77C59.4788 66.5387 59.4175 66.2866 59.4101 66.03C59.4101 65.42 59.7601 64.86 60.1201 64.86C61.1201 64.86 61.9301 67.25 61.9301 69.94C61.9954 72.594 61.5226 75.2337 60.5401 77.7C60.3765 78.0848 60.1268 78.427 59.8101 78.7C59.5935 78.8718 59.3587 79.0193 59.1101 79.14C58.2001 79.61 57.8501 80.22 57.4201 81.96C57.1166 83.0799 56.9124 84.2243 56.8101 85.38C56.8101 86.25 57.3201 86.94 57.9501 86.94C58.2938 86.935 58.6334 86.8637 58.9501 86.73C59.5866 86.4698 60.2631 86.321 60.9501 86.29C61.6521 86.3189 62.3476 86.4365 63.0201 86.64C63.3473 86.7487 63.6813 86.8356 64.0201 86.9C64.3501 86.9 64.6001 86.68 64.8301 86.29C65.4656 84.7 65.7882 83.0023 65.7801 81.29C65.8022 80.9814 65.7449 80.6724 65.6136 80.3923C65.4823 80.1122 65.2814 79.8704 65.0301 79.69C64.7438 79.4466 64.5206 79.1377 64.3796 78.7894C64.2386 78.4412 64.1838 78.064 64.2201 77.69C64.2201 76 64.8501 74.69 65.6801 74.69C66.5101 74.69 66.9701 75.69 66.9701 77.11C66.9701 77.46 66.9701 77.98 66.9701 78.59C66.8701 79.85 66.8201 80.89 66.8201 81.8C66.8201 85.22 68.1301 87.61 70.0201 87.61C71.7101 87.61 73.1201 85.14 73.1201 82.06C73.1201 80.76 72.9001 80.15 72.3201 79.89L71.9101 79.72C71.2801 79.46 70.7801 78.07 70.7801 76.59C70.9871 70.9485 72.1608 65.3845 74.2501 60.14C75.4601 57.06 77.5501 54.8 79.3201 54.72L80.8801 54.63C82.8801 54.5 84.3101 52.55 84.3101 49.9C84.3101 47.25 83.0201 45.13 81.3301 45.13ZM60.8401 55.24C60.7901 56.09 60.8401 59.82 60.6201 60.8C60.2201 60.41 58.6201 60.91 58.4201 61.19C57.9418 60.5523 57.6822 59.7772 57.6801 58.98C57.6301 58.19 57.6801 55.52 57.6801 54.98C57.6801 54.7 58.6101 52.88 58.8801 52.9C59.2835 52.8824 59.6832 52.9832 60.0301 53.19C60.3886 53.607 60.688 54.0714 60.9201 54.57C60.8701 54.74 60.8501 54.97 60.8401 55.24Z" fill="#239B9B"/>
<path d="M35.51 49.2399C35.495 49.4129 35.495 49.5869 35.51 49.7599C35.5198 49.8496 35.5024 49.9402 35.4601 50.0199C35.3901 49.8799 35.2301 49.4599 35.3401 49.3099C35.4501 49.1599 35.7601 49.1999 35.8701 49.2499C35.9801 49.2999 35.9301 50.4199 35.9601 50.4199H36.0201V49.8199C36.0097 49.7536 36.0097 49.6862 36.0201 49.6199C36.026 49.5004 36.0495 49.3825 36.0901 49.2699C36.0901 49.2699 36.2801 49.2699 36.3601 49.2699H37.0201C37.1801 49.2699 37.3001 49.2699 37.3401 49.3999C37.36 49.5794 37.36 49.7605 37.3401 49.9399C37.3249 50.0091 37.3249 50.0807 37.3401 50.1499C37.3401 50.1999 37.3901 50.2399 37.4101 50.2799C37.4301 50.3199 37.4101 50.5899 37.3301 50.7399C37.3301 50.7399 37.4201 50.7399 37.4601 50.7399C37.525 50.6795 37.5744 50.6044 37.604 50.5208C37.6336 50.4372 37.6425 50.3477 37.6301 50.2599C37.616 50.1818 37.5959 50.1049 37.5701 50.0299C37.5201 49.8799 37.4401 49.4899 37.5701 49.3499C37.7001 49.2099 38.0001 49.3499 38.1401 49.4499C38.7801 49.7499 38.7101 50.4499 38.6401 51.0599C38.5825 51.3904 38.5491 51.7246 38.54 52.0599C38.5441 52.2173 38.5852 52.3714 38.6601 52.5099C38.7385 52.7102 38.7726 52.9252 38.76 53.1399V58.9399C38.7436 59.2284 38.7844 59.5173 38.8801 59.7899C38.9193 59.9021 38.9945 59.9982 39.094 60.0632C39.1934 60.1283 39.3115 60.1588 39.43 60.1499C39.4563 60.1469 39.4815 60.1382 39.504 60.1244C39.5264 60.1105 39.5456 60.092 39.5601 60.0699C39.5649 60.0401 39.5649 60.0097 39.5601 59.9799C39.5601 59.3099 39.5 58.6399 39.51 57.9799C39.51 57.7199 39.51 57.4499 39.51 57.1799C39.51 56.9099 39.43 56.5099 39.4 56.1799C39.31 55.3099 39.4 54.4399 39.4 53.5799C39.4 53.1499 39.3001 52.7299 39.2701 52.3099C39.2904 51.9361 39.4001 51.5726 39.5901 51.2499C39.8637 50.6477 40.0425 50.0068 40.1201 49.3499C40.1201 48.9299 39.9 48.4799 39.9 48.0399C39.9 47.2599 40.1501 46.0399 41.1401 46.0399C42.9401 46.0399 44.3701 50.3599 44.3701 55.8499C44.3701 61.3399 43.5201 65.8999 41.9501 68.9099C41.6529 69.5716 41.2041 70.1539 40.6401 70.6099C40.2521 70.9105 39.833 71.1686 39.3901 71.3799C37.7701 72.2299 37.1401 73.3199 36.3901 76.3799C35.8499 78.3772 35.4885 80.4186 35.3101 82.4799C35.3101 84.0299 36.2101 85.2599 37.3101 85.2599C37.9126 85.2486 38.5071 85.1195 39.0601 84.8799C40.2366 84.4128 41.4849 84.1523 42.7501 84.1099C44.1002 84.1463 45.435 84.4065 46.7001 84.8799C47.1869 85.1041 47.7143 85.2266 48.2501 85.2399C48.5982 85.2475 48.9402 85.148 49.23 84.9548C49.5197 84.7617 49.7431 84.4842 49.8701 84.1599C50.7201 82.7599 51.5301 78.3599 51.5301 75.2699C51.5776 74.7216 51.4829 74.1704 51.2552 73.6694C51.0275 73.1684 50.6744 72.7346 50.2301 72.4099C49.7326 71.9845 49.3428 71.4475 49.0926 70.8427C48.8423 70.2379 48.7386 69.5824 48.79 68.9299C48.79 68.5399 48.7901 67.8499 48.8801 67.1499C49.3537 62.5023 50.0882 57.8851 51.0801 53.3199C52.3801 47.5999 54.1801 45.0499 56.9701 45.0499C57.5734 45.0606 58.1736 45.1377 58.76 45.2799C60.1191 45.6983 61.5216 45.96 62.9401 46.0599C67.2101 46.0599 70.6301 39.0599 70.6301 30.3699C70.7356 28.7324 70.4475 27.0934 69.79 25.5899C69.68 25.3699 69.4001 25.1299 69.34 24.8999C69.28 24.6699 69.4201 24.1199 69.34 23.7499C69.2556 23.2883 69.05 22.8574 68.7444 22.5012C68.4388 22.1451 68.0441 21.8765 67.6006 21.7229C67.1571 21.5693 66.6808 21.5363 66.2204 21.6271C65.76 21.7179 65.3319 21.9294 64.98 22.2399C64.8088 21.7003 64.5213 21.2048 64.1377 20.7884C63.7541 20.372 63.2838 20.0448 62.76 19.8299C61.7047 19.4049 60.554 19.2736 59.43 19.4499C58.4977 19.5364 57.595 19.8234 56.7838 20.2911C55.9726 20.7588 55.272 21.3963 54.73 22.1599C54.348 22.9877 53.8679 23.7666 53.3001 24.4799C52.2001 25.4799 50.4101 25.3799 49.0001 24.8299C47.6485 24.1318 46.2401 23.5497 44.79 23.0899C43.6207 22.9222 42.4282 23.0413 41.315 23.4367C40.2019 23.8321 39.2015 24.4921 38.4 25.3599C36.8111 27.0974 35.5899 29.1383 34.8101 31.3599C34.5458 32.3929 33.8941 33.2845 32.9901 33.8499C31.5901 34.4699 30.0801 33.3699 28.5901 32.9699C27.8026 32.7588 26.9742 32.7525 26.1837 32.9518C25.3931 33.1511 24.6667 33.5492 24.0734 34.1084C23.4801 34.6676 23.0398 35.3693 22.7941 36.1467C22.5485 36.9241 22.5058 37.7514 22.6701 38.5499C22.7261 38.8926 22.82 39.228 22.9501 39.5499C23.0301 39.7499 23.3501 40.1299 23.3401 40.3399C23.3301 40.5499 22.9701 40.9699 22.9001 41.2399C22.822 41.5128 22.7882 41.7964 22.8001 42.0799C22.8438 42.6448 22.9895 43.197 23.2301 43.7099C23.7375 44.7755 24.3613 45.7816 25.0901 46.7099C25.6171 47.4493 26.1952 48.151 26.8201 48.8099L27.0501 49.0299C27.1201 49.0899 27.2601 49.1399 27.3101 49.2099C27.3601 49.2799 27.3101 49.4399 27.3101 49.5399C27.3101 49.6399 27.3101 49.8099 27.3101 49.9399C27.3101 50.4699 27.3101 51.0099 27.3101 51.5399C27.3071 51.7154 27.2836 51.8899 27.2401 52.0599C27.2303 52.1162 27.2303 52.1737 27.2401 52.2299C27.2392 52.2598 27.2488 52.289 27.267 52.3127C27.2852 52.3363 27.311 52.353 27.3401 52.3599C27.4401 52.3599 27.4901 52.2599 27.5101 52.1699C27.55 51.6841 27.55 51.1958 27.5101 50.7099C27.5256 50.4566 27.5657 50.2054 27.6301 49.9599L27.7201 49.5999C27.7273 49.5345 27.7441 49.4704 27.7701 49.4099C27.7701 49.4099 27.7701 49.4099 27.8801 49.4099C28.1401 49.4099 28.4001 49.4099 28.6601 49.4099C28.7301 49.4099 28.9101 49.4099 28.9701 49.4099C29.0301 49.4099 28.9701 49.6899 28.9701 49.7599C28.972 50.0183 28.9486 50.2762 28.9001 50.5299C28.9001 50.8299 28.7501 51.1299 28.6801 51.4199C28.5401 51.9599 28.4501 52.4999 28.3601 53.0499C28.1345 54.1108 28.0671 55.1993 28.1601 56.2799C28.2401 56.9199 28.4401 57.5499 28.4701 58.1999C28.4701 58.5599 28.4701 58.9199 28.4701 59.2799C28.5074 59.8466 28.6899 60.3942 29.0001 60.8699L29.1901 60.0999C29.2779 59.8291 29.3119 59.5438 29.2901 59.2599C29.2901 59.1199 29.2301 58.9799 29.2001 58.8299C29.2001 58.4299 29.2801 58.0299 29.2701 57.6199C29.2223 57.1967 29.1249 56.7805 28.9801 56.3799C28.859 55.8826 28.8319 55.3671 28.9001 54.8599C28.9001 54.5699 29.0201 54.2799 29.0601 53.9899C29.1001 53.6999 29.0601 53.4599 29.0601 53.1899C29.09 52.4243 29.2281 51.6668 29.4701 50.9399C29.5821 50.5747 29.726 50.22 29.9001 49.8799C29.9001 49.7599 30.0501 49.4699 30.1601 49.4099C30.2701 49.3499 30.5901 49.4099 30.7101 49.4099C30.8301 49.4099 31.1001 49.3499 31.1001 49.5899V50.3899C31.0951 50.4298 31.0951 50.4701 31.1001 50.5099C31.1089 50.5295 31.1229 50.5463 31.1405 50.5586C31.1581 50.5709 31.1786 50.5783 31.2001 50.5799C31.2001 50.5799 31.2801 50.5799 31.2901 50.4799C31.2992 50.4337 31.2992 50.3861 31.2901 50.3399C31.2537 50.1996 31.2369 50.0549 31.2401 49.9099C31.2401 49.8199 31.2401 49.5399 31.2401 49.4699C31.2401 49.3999 31.5401 49.3899 31.6201 49.4699C31.685 49.5038 31.7403 49.5538 31.7805 49.615C31.8208 49.6763 31.8447 49.7468 31.8501 49.8199C31.8501 49.8199 31.8501 49.6399 31.9301 49.5799C32.0101 49.5199 32.0201 49.5099 32.1501 49.5099H32.8201C33.0055 49.4799 33.1946 49.4799 33.3801 49.5099C33.4901 49.5599 33.5401 49.7599 33.5301 49.8699C33.5198 49.9815 33.4997 50.0919 33.4701 50.1999C33.4603 50.3331 33.4603 50.4668 33.4701 50.5999C33.4452 51.0162 33.4452 51.4336 33.4701 51.8499C33.4948 52.2529 33.4948 52.657 33.4701 53.0599C33.4701 53.6199 33.4701 54.1699 33.4701 54.7299C33.445 55.0995 33.445 55.4703 33.4701 55.8399C33.5301 56.4799 33.7701 57.0899 33.7801 57.7299C33.8311 57.6736 33.8692 57.6069 33.8916 57.5343C33.9141 57.4618 33.9204 57.3852 33.9101 57.3099C33.8797 57.1637 33.8292 57.0223 33.76 56.8899C33.5146 56.3481 33.448 55.7421 33.5701 55.1599C33.6879 54.8331 33.7848 54.4991 33.8601 54.1599C33.8753 53.8505 33.845 53.5405 33.7701 53.2399C33.7201 52.9399 33.6901 52.6499 33.6701 52.3499C33.685 52.0835 33.685 51.8164 33.6701 51.5499C33.6302 51.3351 33.6302 51.1147 33.6701 50.8999C33.74 50.7449 33.7968 50.5844 33.8401 50.4199C33.8401 50.2899 33.8401 50.1699 33.8401 50.0399C33.8198 49.8552 33.8697 49.6695 33.9801 49.5199C34.0901 49.4199 34.3301 49.5199 34.4801 49.5199H35.1101H35.2701" fill="#3B493C"/>
<path d="M81.3301 43.9399C79.5601 43.9399 76.8901 46.3199 74.9001 49.6599C72.3501 53.9099 70.5401 58.8999 68.6901 66.5699C68.1701 68.8299 67.6901 69.6499 66.8301 69.6499C66.2001 69.6499 65.7401 68.9199 65.7401 67.8799C65.7126 67.2754 65.8287 66.6729 66.079 66.1219C66.3293 65.5708 66.7066 65.087 67.1801 64.7099C67.634 64.4515 68.0373 64.1126 68.3701 63.7099C68.6473 61.991 68.7712 60.2508 68.7401 58.5099C68.6501 58.1099 60.9501 47.9899 59.4201 46.8899C58.7501 47.5299 53.4201 54.6499 53.4201 54.8899C53.3301 58.7499 53.5801 62.5999 53.5801 66.4399C53.5801 70.5599 55.2201 73.6799 57.4201 73.6799C59.1601 73.6799 60.4901 71.5599 60.4901 68.7799C60.5189 67.8654 60.3196 66.9581 59.9101 66.1399C59.7101 65.7899 59.6101 65.6199 59.5901 65.5699C59.4779 65.3425 59.4165 65.0934 59.4101 64.8399C59.4101 64.2299 59.7601 63.6699 60.1201 63.6699C61.1201 63.6699 61.9301 66.0499 61.9301 68.7399C61.9954 71.3939 61.5226 74.0337 60.5401 76.4999C60.3718 76.8821 60.1228 77.2233 59.8101 77.4999C59.5896 77.6632 59.3554 77.8071 59.1101 77.9299C58.2001 78.4099 57.8501 79.0199 57.4201 80.7499C57.1173 81.8734 56.9132 83.021 56.8101 84.1799C56.8101 85.0399 57.3201 85.7399 57.9501 85.7399C58.2943 85.7301 58.6335 85.6555 58.9501 85.5199C59.5886 85.2677 60.2643 85.1225 60.9501 85.09C61.6512 85.1198 62.3462 85.2339 63.0201 85.4299C63.3457 85.544 63.6801 85.631 64.0201 85.6899C64.3501 85.6899 64.6001 85.4799 64.8301 85.09C65.4637 83.4994 65.7862 81.802 65.7801 80.09C65.802 79.78 65.7447 79.4695 65.6135 79.1879C65.4823 78.9062 65.2815 78.6626 65.0301 78.4799C64.7431 78.2371 64.5195 77.9282 64.3784 77.5798C64.2373 77.2315 64.183 76.854 64.2201 76.4799C64.2201 74.7899 64.8501 73.4799 65.6801 73.4799C66.5101 73.4799 66.9701 74.4799 66.9701 75.9099C66.9701 76.2599 66.9701 76.7799 66.9701 77.3799C66.8701 78.6399 66.8201 79.68 66.8201 80.59C66.8201 84.02 68.1301 86.3999 70.0201 86.3999C71.7101 86.3999 73.1201 83.9299 73.1201 80.8499C73.1201 79.5499 72.9001 78.9499 72.3201 78.6799L71.9101 78.5099C71.2801 78.25 70.7801 76.8599 70.7801 75.3899C70.9881 69.7486 72.1618 64.1847 74.2501 58.9399C75.4601 55.8599 77.5501 53.6099 79.3201 53.5199L80.8801 53.4299C82.8801 53.2999 84.3101 51.3499 84.3101 48.7099C84.3101 46.0699 83.0201 43.9399 81.3301 43.9399ZM60.8401 53.9999C60.7901 54.8499 60.8401 58.5699 60.6201 59.5499C60.2201 59.1699 58.6201 59.6599 58.4201 59.9399C57.9418 59.3022 57.6822 58.5271 57.6801 57.7299C57.6301 56.9499 57.6801 54.2699 57.6801 53.7299C57.6801 53.4599 58.6101 51.6399 58.8801 51.6599C59.2844 51.6328 59.6869 51.7343 60.0301 51.9499C60.3902 52.3657 60.6899 52.8303 60.9201 53.3299C60.8701 53.5399 60.8501 53.7699 60.8401 53.9999Z" fill="#3B493C"/>
<path d="M35.5101 48.0501C35.495 48.2231 35.495 48.3971 35.5101 48.5701C35.5199 48.6598 35.5025 48.7504 35.4601 48.8301C35.3901 48.6901 35.2301 48.2701 35.3401 48.1201C35.4501 47.9701 35.7601 48.0101 35.8701 48.1201C35.9801 48.2301 35.9301 49.2801 35.9601 49.2801H36.0201V48.6801C36.0107 48.6137 36.0107 48.5464 36.0201 48.4801C36.027 48.364 36.0505 48.2495 36.0901 48.1401C36.0901 48.0801 36.2801 48.1401 36.3601 48.1401H37.0201C37.1801 48.1401 37.3001 48.1401 37.3401 48.2701C37.3601 48.4495 37.3601 48.6306 37.3401 48.8101C37.3247 48.8826 37.3247 48.9576 37.3401 49.0301L37.4101 49.1501C37.4701 49.3001 37.4101 49.4601 37.3301 49.6101C37.3301 49.6601 37.4201 49.6101 37.4601 49.6101C37.5258 49.5482 37.5756 49.4713 37.6052 49.3859C37.6348 49.3006 37.6434 49.2094 37.6301 49.1201C37.6147 49.0423 37.5946 48.9655 37.5701 48.8901C37.5201 48.7401 37.4401 48.3501 37.5701 48.2201C37.7001 48.0901 38.0001 48.2201 38.1401 48.3101C38.7801 48.6101 38.7101 49.3101 38.6401 49.9301C38.5821 50.2605 38.5486 50.5947 38.5401 50.9301C38.5441 51.0874 38.5852 51.2416 38.6601 51.3801C38.7383 51.577 38.7724 51.7886 38.7601 52.0001V57.8001C38.7436 58.0885 38.7844 58.3774 38.8801 58.6501C38.9191 58.7632 38.9938 58.8605 39.0931 58.9272C39.1923 58.994 39.3106 59.0266 39.4301 59.0201C39.4567 59.0147 39.482 59.0039 39.5044 58.9885C39.5267 58.973 39.5457 58.9531 39.5601 58.9301C39.5655 58.9003 39.5655 58.8698 39.5601 58.8401C39.5601 58.1801 39.5001 57.5101 39.5101 56.8401C39.5101 56.5701 39.5101 56.3001 39.5101 56.0401C39.5101 55.7801 39.4301 55.3601 39.4001 55.0401C39.3101 54.1801 39.4001 53.3101 39.4001 52.4401C39.4001 52.0101 39.3001 51.6001 39.2701 51.1701C39.2934 50.7968 39.4029 50.4339 39.5901 50.1101C39.8623 49.5109 40.041 48.8735 40.1201 48.2201C40.1201 47.8001 39.9001 47.3501 39.9001 46.9001C39.9001 46.1201 40.1501 44.9001 41.1401 44.9001C42.9401 44.9001 44.3701 49.2301 44.3701 54.7201C44.3701 60.2101 43.5201 64.7201 41.9501 67.7801C41.6529 68.4417 41.2042 69.0241 40.6401 69.4801C40.247 69.7731 39.8287 70.0308 39.3901 70.2501C37.7701 71.1001 37.1401 72.1801 36.3901 75.2501C35.8505 77.2509 35.4891 79.2955 35.3101 81.3601C35.3101 82.9001 36.2101 84.1401 37.3101 84.1401C37.9131 84.1241 38.5073 83.9916 39.0601 83.7501C40.2366 83.283 41.485 83.0225 42.7501 82.9801C44.1003 83.0165 45.4351 83.2767 46.7001 83.7501C47.1828 83.9593 47.704 84.0649 48.2301 84.0601C48.5782 84.0676 48.9203 83.9681 49.21 83.775C49.4998 83.5818 49.7232 83.3043 49.8501 82.9801C50.7001 81.5901 51.5101 77.1801 51.5101 74.0901C51.5594 73.5471 51.4696 73.0006 51.2491 72.5019C51.0287 72.0033 50.6849 71.569 50.2501 71.2401C49.7528 70.8167 49.363 70.2815 49.1127 69.6783C48.8624 69.0751 48.7587 68.4211 48.8101 67.7701C48.8101 67.3801 48.8101 66.6801 48.9001 65.9901C49.3738 61.3392 50.1083 56.7186 51.1001 52.1501C52.4001 46.4401 54.2001 43.8901 56.9901 43.8901C57.5938 43.8958 58.1946 43.973 58.7801 44.1201C60.1392 44.5367 61.5418 44.7951 62.9601 44.8901C67.2301 44.8901 70.6501 37.8901 70.6501 29.2001C70.7563 27.5657 70.4682 25.9298 69.8101 24.4301C69.7001 24.2101 69.4201 23.9601 69.3601 23.7401C69.3001 23.5201 69.4401 22.9601 69.3601 22.5901C69.3072 22.2276 69.1816 21.8795 68.9908 21.5668C68.8001 21.2541 68.5481 20.9831 68.2501 20.7701C67.7556 20.4594 67.175 20.3143 66.5925 20.3556C66.01 20.397 65.4557 20.6227 65.0101 21.0001C64.8389 20.4604 64.5513 19.9649 64.1677 19.5485C63.7842 19.1321 63.3139 18.8049 62.7901 18.5901C61.7338 18.1684 60.5831 18.0406 59.4601 18.2201C58.5272 18.3046 57.6238 18.5908 56.8123 19.0586C56.0008 19.5265 55.3006 20.1651 54.7601 20.9301C54.3713 21.7578 53.8809 22.5338 53.3001 23.2401C52.2001 24.2401 50.4101 24.1501 49.0001 23.6001C47.6488 22.8988 46.2404 22.3134 44.7901 21.8501C43.6209 21.6867 42.4296 21.8077 41.3172 22.2029C40.2048 22.5981 39.2041 23.2557 38.4001 24.1201C36.8153 25.8607 35.5947 27.9007 34.8101 30.1201C34.5458 31.1531 33.8941 32.0447 32.9901 32.6101C31.5901 33.2401 30.0801 32.1301 28.5901 31.7401C27.8033 31.5266 26.975 31.5184 26.1841 31.7161C25.3932 31.9139 24.6663 32.311 24.0725 32.8696C23.4788 33.4283 23.0382 34.1297 22.7926 34.9071C22.5471 35.6845 22.5049 36.5118 22.6701 37.3101C22.7231 37.6534 22.8171 37.9892 22.9501 38.3101C23.0301 38.5201 23.3501 38.9001 23.3401 39.1101C23.3301 39.3201 22.9701 39.7401 22.9001 40.0001C22.822 40.2729 22.7882 40.5565 22.8001 40.8401C22.8426 41.4083 22.9883 41.9641 23.2301 42.4801C23.7376 43.5456 24.3613 44.5517 25.0901 45.4801C25.6197 46.2176 26.1976 46.9191 26.8201 47.5801C26.9001 47.6501 26.9701 47.7301 27.0501 47.7901C27.1399 47.8454 27.2267 47.9054 27.3101 47.9701C27.3701 48.0501 27.3101 48.2101 27.3101 48.3001C27.3101 48.3901 27.3101 48.5701 27.3101 48.7001C27.3101 49.2401 27.3101 49.7701 27.3101 50.3101C27.3072 50.4823 27.2837 50.6535 27.2401 50.8201C27.2302 50.8797 27.2302 50.9405 27.2401 51.0001C27.2387 51.0145 27.2402 51.0291 27.2445 51.043C27.2488 51.0569 27.2558 51.0698 27.2651 51.0809C27.2744 51.0921 27.2858 51.1013 27.2987 51.108C27.3115 51.1147 27.3256 51.1188 27.3401 51.1201C27.4401 51.1201 27.4901 51.0301 27.5101 50.9301C27.5501 50.4476 27.5501 49.9626 27.5101 49.4801C27.524 49.2266 27.5643 48.9753 27.6301 48.7301L27.7201 48.3701C27.726 48.3044 27.7429 48.2402 27.7701 48.1801C27.7701 48.1201 27.7701 48.1801 27.8801 48.1801C28.1401 48.1801 28.4001 48.1801 28.6601 48.1801C28.7301 48.1801 28.9101 48.1801 28.9701 48.1801C29.0301 48.1801 28.9701 48.4601 28.9701 48.5201C28.9721 48.7784 28.9486 49.0363 28.9001 49.2901C28.9001 49.6001 28.7501 49.8901 28.6801 50.1901C28.5401 50.7201 28.4501 51.2701 28.3601 51.8101C28.1336 52.8742 28.0662 53.9661 28.1601 55.0501C28.2401 55.6901 28.4401 56.3201 28.4701 56.9701C28.4701 57.3301 28.4701 57.6901 28.4701 58.0501C28.5091 58.6133 28.6916 59.1572 29.0001 59.6301L29.1901 58.8701C29.2775 58.5992 29.3114 58.3139 29.2901 58.0301C29.2901 57.8801 29.2301 57.7401 29.2001 57.5901C29.2001 57.1901 29.2801 56.7901 29.2701 56.3901C29.2223 55.9636 29.1249 55.5441 28.9801 55.1401C28.8583 54.6429 28.8312 54.1273 28.9001 53.6201C28.9001 53.3301 29.0201 53.0501 29.0601 52.7501C29.1001 52.4501 29.0601 52.2201 29.0601 51.9501C29.0918 51.1847 29.2298 50.4274 29.4701 49.7001C29.5839 49.3355 29.7278 48.9809 29.9001 48.6401C29.9001 48.5301 30.0501 48.2401 30.1601 48.1801C30.2701 48.1201 30.5901 48.1801 30.7101 48.1801C30.8301 48.1801 31.1001 48.1201 31.1001 48.3701V49.1601C31.0951 49.2033 31.0951 49.2469 31.1001 49.2901C31.1001 49.2901 31.1601 49.3601 31.2001 49.3501C31.2401 49.3401 31.2801 49.3501 31.2901 49.2601C31.3004 49.214 31.3004 49.1662 31.2901 49.1201C31.2532 48.9764 31.2364 48.8283 31.2401 48.6801C31.2401 48.5901 31.2401 48.3101 31.2401 48.2401C31.2401 48.1701 31.5401 48.1701 31.6201 48.2401C31.6847 48.277 31.7394 48.3291 31.7794 48.3918C31.8195 48.4545 31.8437 48.5259 31.8501 48.6001C31.8501 48.6001 31.8501 48.4201 31.9301 48.3501C32.0101 48.2801 32.0201 48.2801 32.1501 48.2801H32.8201C33.0055 48.25 33.1946 48.25 33.3801 48.2801C33.4338 48.3245 33.4757 48.3815 33.5019 48.4461C33.528 48.5107 33.5378 48.5808 33.5301 48.6501C33.5198 48.7583 33.4997 48.8654 33.4701 48.9701C33.4603 49.1066 33.4603 49.2436 33.4701 49.3801C33.4451 49.7964 33.4451 50.2138 33.4701 50.6301C33.495 51.033 33.495 51.4371 33.4701 51.8401C33.4701 52.3901 33.4701 52.9501 33.4701 53.5001C33.4451 53.873 33.4451 54.2472 33.4701 54.6201C33.5301 55.2501 33.7701 55.8701 33.7801 56.5001C33.8309 56.4457 33.8689 56.3807 33.8914 56.3098C33.9139 56.2388 33.9203 56.1638 33.9101 56.0901C33.8797 55.9406 33.8293 55.796 33.7601 55.6601C33.514 55.1219 33.4474 54.5189 33.5701 53.9401C33.6876 53.6131 33.7844 53.2791 33.8601 52.9401C33.8744 52.6307 33.8441 52.3208 33.7701 52.0201C33.7214 51.7253 33.688 51.4283 33.6701 51.1301C33.685 50.867 33.685 50.6032 33.6701 50.3401C33.6301 50.1219 33.6301 49.8983 33.6701 49.6801C33.7415 49.5257 33.7984 49.365 33.8401 49.2001C33.8401 49.0801 33.8401 48.9501 33.8401 48.8301C33.8198 48.6453 33.8698 48.4597 33.9801 48.3101C34.0901 48.2101 34.3301 48.2601 34.4801 48.3101H35.1101H35.2701" fill="#431146"/>
<path d="M81.3301 42.74C79.5601 42.74 76.8901 45.13 74.9001 48.47C72.3501 52.72 70.5401 57.7 68.6901 65.38C68.1701 67.63 67.6901 68.46 66.8301 68.46C66.2001 68.46 65.7401 67.72 65.7401 66.68C65.715 66.0757 65.8322 65.474 66.0823 64.9234C66.3325 64.3728 66.7085 63.8886 67.1801 63.51C67.634 63.2515 68.0373 62.9127 68.3701 62.51C68.648 60.7911 68.7719 59.0509 68.7401 57.31C68.6501 56.91 60.9501 46.8 59.4201 45.69C58.7501 46.34 53.4201 53.45 53.4201 53.69C53.3301 57.54 53.5801 61.4 53.5801 65.24C53.5801 69.36 55.2201 72.48 57.4201 72.48C59.1601 72.48 60.4901 70.35 60.4901 67.58C60.5177 66.6624 60.3184 65.7522 59.9101 64.93L59.5901 64.37C59.4788 64.1387 59.4175 63.8865 59.4101 63.63C59.4101 63.02 59.7601 62.46 60.1201 62.46C61.1201 62.46 61.9301 64.85 61.9301 67.53C61.9965 70.1873 61.5236 72.8305 60.5401 75.3C60.3765 75.6848 60.1268 76.027 59.8101 76.3C59.5935 76.4717 59.3587 76.6193 59.1101 76.74C58.2001 77.21 57.8501 77.82 57.4201 79.55C57.1173 80.6734 56.9132 81.8211 56.8101 82.98C56.8101 83.85 57.3201 84.54 57.9501 84.54C58.2938 84.535 58.6334 84.4637 58.9501 84.33C59.5866 84.0698 60.2631 83.921 60.9501 83.89C61.6521 83.9189 62.3476 84.0365 63.0201 84.24C63.3473 84.3487 63.6813 84.4356 64.0201 84.5C64.3501 84.5 64.6001 84.28 64.8301 83.89C65.4656 82.3 65.7882 80.6023 65.7801 78.89C65.8022 78.5814 65.7449 78.2724 65.6136 77.9922C65.4823 77.7121 65.2814 77.4704 65.0301 77.29C64.7438 77.0466 64.5206 76.7377 64.3796 76.3894C64.2386 76.0412 64.1838 75.664 64.2201 75.29C64.2201 73.6 64.8501 72.29 65.6801 72.29C66.5101 72.29 66.9701 73.29 66.9701 74.71C66.9701 75.06 66.9701 75.58 66.9701 76.19C66.8701 77.45 66.8201 78.49 66.8201 79.4C66.8201 82.82 68.1301 85.21 70.0201 85.21C71.7101 85.21 73.1201 82.74 73.1201 79.66C73.1201 78.36 72.9001 77.75 72.3201 77.49L71.9101 77.32C71.2801 77.06 70.7801 75.67 70.7801 74.19C71.0233 68.5957 72.217 63.0837 74.3101 57.89C75.5201 54.81 77.6101 52.55 79.3801 52.47L80.9401 52.38C82.9401 52.25 84.3701 50.3 84.3701 47.65C84.3701 45 83.0201 42.74 81.3301 42.74ZM60.8401 52.8C60.7901 53.65 60.8401 57.38 60.6201 58.36C60.2201 57.97 58.6201 58.47 58.4201 58.75C57.9418 58.1123 57.6822 57.3371 57.6801 56.54C57.6301 55.75 57.6801 53.08 57.6801 52.54C57.6801 52.26 58.6101 50.44 58.8801 50.46C59.2835 50.4424 59.6832 50.5432 60.0301 50.75C60.3886 51.167 60.688 51.6314 60.9201 52.13C60.8701 52.35 60.8501 52.58 60.8401 52.8Z" fill="#431146"/>
<path d="M35.9101 46.24C35.8903 46.4128 35.8903 46.5873 35.9101 46.76C35.9199 46.8497 35.9024 46.9403 35.8601 47.02C35.7801 46.88 35.6301 46.47 35.7301 46.31C35.8135 46.2728 35.9038 46.2536 35.9951 46.2536C36.0864 46.2536 36.1767 46.2728 36.2601 46.31C36.4001 46.37 36.3201 47.48 36.3601 47.47H36.4201V46.87C36.4102 46.8004 36.4102 46.7297 36.4201 46.66C36.4269 46.5439 36.4505 46.4294 36.4901 46.32C36.5401 46.26 36.6801 46.32 36.7601 46.32C36.8401 46.32 37.2001 46.32 37.4201 46.32C37.6401 46.32 37.7001 46.32 37.7401 46.45C37.7551 46.6331 37.7551 46.817 37.7401 47C37.7302 47.0697 37.7302 47.1404 37.7401 47.21C37.7401 47.21 37.7901 47.29 37.8101 47.34C37.8301 47.39 37.8101 47.64 37.7401 47.79C37.7354 47.8098 37.7354 47.8303 37.7401 47.85C37.7401 47.85 37.8301 47.85 37.8601 47.85C37.9291 47.7902 37.9817 47.7139 38.0132 47.6282C38.0447 47.5425 38.0539 47.4503 38.0401 47.36C38.0261 47.2808 38.0026 47.2036 37.9701 47.13C37.9701 46.99 37.8401 46.59 37.9701 46.46C38.1001 46.33 38.4001 46.46 38.5401 46.55C39.1801 46.85 39.1101 47.55 39.0401 48.17C38.9772 48.4997 38.9437 48.8344 38.9401 49.17C38.9441 49.3274 38.9852 49.4816 39.0601 49.62C39.1383 49.8169 39.1724 50.0285 39.1601 50.24V56.05C39.1452 56.3384 39.1859 56.627 39.2801 56.9C39.3801 57.11 39.5901 57.31 39.8201 57.26C39.8477 57.2576 39.8742 57.248 39.897 57.2322C39.9198 57.2164 39.9381 57.195 39.9501 57.17C39.9601 57.1443 39.9601 57.1157 39.9501 57.09C39.9501 56.42 39.8901 55.75 39.8901 55.09C39.8901 54.82 39.8901 54.55 39.8901 54.29C39.8901 54.03 39.8201 53.61 39.7901 53.29C39.7001 52.42 39.7901 51.55 39.7901 50.68C39.7901 50.25 39.6901 49.84 39.6601 49.41C39.6834 49.0367 39.7929 48.6739 39.9801 48.35C40.2523 47.7508 40.431 47.1134 40.5101 46.46C40.5101 46.04 40.2901 45.59 40.2901 45.14C40.2901 44.36 40.5401 43.14 41.5301 43.14C43.3201 43.14 44.7601 47.47 44.7601 52.96C44.7601 58.45 43.9101 62.96 42.3401 66.02C42.0429 66.6817 41.5941 67.2641 41.0301 67.72C40.6345 68.0147 40.2127 68.2724 39.7701 68.49C38.1601 69.34 37.5301 70.42 36.7701 73.49C36.2373 75.4919 35.8792 77.5362 35.7001 79.6C35.7001 81.14 36.5901 82.38 37.7001 82.38C38.3031 82.364 38.8973 82.2316 39.4501 81.99C40.6266 81.523 41.8749 81.2625 43.1401 81.22C44.4896 81.2624 45.8234 81.5224 47.0901 81.99C47.5728 82.1993 48.094 82.3049 48.6201 82.3C48.9671 82.3084 49.3083 82.2091 49.5966 82.0157C49.8849 81.8223 50.1062 81.5443 50.2301 81.22C51.0901 79.83 51.9001 75.43 51.9001 72.33C51.9477 71.7822 51.852 71.2313 51.6223 70.7317C51.3926 70.232 51.0369 69.8006 50.5901 69.48C50.104 69.037 49.7293 68.4855 49.4964 67.8704C49.2636 67.2553 49.1792 66.5939 49.2501 65.94C49.2501 65.55 49.2501 64.86 49.3401 64.16C49.8129 59.5123 50.5474 54.895 51.5401 50.33C52.8401 44.61 54.6401 42.06 57.4201 42.06C58.027 42.0656 58.6312 42.1428 59.2201 42.29C60.5791 42.7067 61.9818 42.9651 63.4001 43.06C67.6701 43.06 71.0801 36.06 71.0801 27.37C71.1891 25.7365 70.9044 24.1007 70.2501 22.6C70.1301 22.38 69.8601 22.13 69.8001 21.91C69.7401 21.69 69.8801 21.13 69.8001 20.76C69.7384 20.3985 69.6038 20.0534 69.4043 19.7456C69.2049 19.4379 68.9449 19.174 68.6401 18.97C68.1471 18.6602 67.5682 18.5155 66.9875 18.5568C66.4067 18.5982 65.8542 18.8235 65.4101 19.2C65.2388 18.6604 64.9513 18.1649 64.5677 17.7485C64.1841 17.3321 63.7139 17.0049 63.1901 16.79C62.1338 16.3684 60.9831 16.2405 59.8601 16.42C58.9258 16.5045 58.0209 16.7905 57.2078 17.2583C56.3947 17.7262 55.6926 18.3647 55.1501 19.13C54.7775 19.9576 54.3003 20.7339 53.7301 21.44C52.6301 22.44 50.8401 22.35 49.4301 21.8C48.0787 21.0987 46.6704 20.5133 45.2201 20.05C44.0509 19.8867 42.8596 20.0077 41.7472 20.4029C40.6348 20.798 39.6341 21.4557 38.8301 22.32C37.2453 24.0606 36.0247 26.1006 35.2401 28.32C34.9749 29.3526 34.3234 30.2439 33.4201 30.81C32.0201 31.44 30.5001 30.33 29.0201 29.94C28.2326 29.7289 27.4042 29.7226 26.6137 29.9219C25.8231 30.1212 25.0967 30.5193 24.5034 31.0785C23.9102 31.6377 23.4698 32.3394 23.2242 33.1168C22.9785 33.8942 22.9358 34.7215 23.1001 35.52C23.1582 35.8428 23.2522 36.1581 23.3801 36.46C23.4601 36.67 23.7801 37.05 23.7701 37.26C23.7601 37.47 23.4001 37.89 23.3301 38.15C23.252 38.4229 23.2182 38.7065 23.2301 38.99C23.2726 39.5583 23.4183 40.114 23.6601 40.63C24.1675 41.6956 24.7913 42.7017 25.5201 43.63C26.0441 44.3718 26.6223 45.0737 27.2501 45.73C27.3219 45.8052 27.3987 45.8753 27.4801 45.94C27.5501 46 27.6901 46.06 27.7401 46.13C27.7901 46.2 27.7401 46.36 27.7401 46.46C27.7401 46.56 27.7401 46.72 27.7401 46.86C27.7401 47.39 27.7401 47.93 27.7401 48.46C27.7372 48.6322 27.7137 48.8034 27.6701 48.97C27.6602 49.0296 27.6602 49.0904 27.6701 49.15C27.6693 49.1799 27.6788 49.2091 27.697 49.2328C27.7152 49.2565 27.741 49.2731 27.7701 49.28C27.8601 49.28 27.9201 49.18 27.9401 49.08C27.9752 48.5973 27.9752 48.1127 27.9401 47.63C27.954 47.3766 27.9942 47.1252 28.0601 46.88L28.1501 46.52C28.1398 46.4571 28.1398 46.3929 28.1501 46.33C28.1501 46.27 28.1501 46.33 28.2601 46.33C28.5201 46.33 28.7801 46.33 29.0401 46.33C29.1101 46.33 29.2901 46.33 29.3401 46.33C29.3901 46.33 29.3401 46.61 29.3401 46.67C29.35 46.9315 29.3298 47.1932 29.2801 47.45C29.2201 47.75 29.1301 48.04 29.0501 48.34C28.9101 48.87 28.8301 49.42 28.7401 49.97C28.5112 51.0305 28.4404 52.1189 28.5301 53.2C28.6201 53.84 28.8201 54.47 28.8501 55.12C28.8501 55.48 28.8501 55.84 28.8501 56.2C28.8891 56.7633 29.0715 57.3072 29.3801 57.78L29.5701 57.02C29.6574 56.7491 29.6914 56.4639 29.6701 56.18C29.6701 56.03 29.6001 55.89 29.5801 55.75C29.5785 55.3456 29.6019 54.9415 29.6501 54.54C29.6022 54.1135 29.5049 53.694 29.3601 53.29C29.2383 52.7929 29.2112 52.2772 29.2801 51.77C29.2801 51.48 29.4001 51.2 29.4401 50.9C29.4801 50.6 29.4401 50.37 29.4401 50.11C29.4675 49.3417 29.6021 48.581 29.8401 47.85C29.9635 47.4875 30.1105 47.1334 30.2801 46.79C30.2801 46.68 30.4301 46.39 30.5401 46.33C30.7218 46.2952 30.9084 46.2952 31.0901 46.33C31.2801 46.33 31.4801 46.27 31.4801 46.51V47.24C31.4751 47.2832 31.4751 47.3268 31.4801 47.37C31.489 47.3896 31.5029 47.4064 31.5205 47.4187C31.5381 47.431 31.5587 47.4384 31.5801 47.44C31.6028 47.4332 31.6232 47.4202 31.639 47.4026C31.6549 47.3849 31.6656 47.3633 31.6701 47.34C31.6749 47.2935 31.6749 47.2466 31.6701 47.2C31.6347 47.0559 31.6146 46.9084 31.6101 46.76C31.5849 46.6144 31.5849 46.4656 31.6101 46.32C31.6701 46.24 31.9101 46.25 31.9901 46.32C32.0547 46.357 32.1093 46.409 32.1494 46.4717C32.1895 46.5344 32.2137 46.6059 32.2201 46.68C32.2201 46.68 32.2201 46.5 32.3001 46.43C32.3801 46.36 32.3901 46.36 32.5201 46.36H33.1901C33.3759 46.3349 33.5643 46.3349 33.7501 46.36C33.8031 46.405 33.8445 46.4621 33.8706 46.5266C33.8967 46.591 33.9068 46.6608 33.9001 46.73C33.8923 46.8395 33.8687 46.9473 33.8301 47.05C33.8202 47.1865 33.8202 47.3235 33.8301 47.46C33.8001 47.8762 33.8001 48.2939 33.8301 48.71C33.8717 49.1119 33.8884 49.516 33.8801 49.92C33.8801 50.48 33.8801 51.03 33.8801 51.58C33.8551 51.9529 33.8551 52.3271 33.8801 52.7C33.9401 53.33 34.1801 53.95 34.1901 54.59C34.2419 54.5345 34.2798 54.4675 34.3006 54.3945C34.3215 54.3215 34.3247 54.2445 34.3101 54.17C34.2832 54.021 34.2361 53.8763 34.1701 53.74C33.924 53.2019 33.8574 52.5989 33.9801 52.02C34.0965 51.6927 34.1933 51.3588 34.2701 51.02C34.2853 50.7106 34.255 50.4006 34.1801 50.1C34.1221 49.8033 34.0887 49.5023 34.0801 49.2C34.0801 48.94 34.1301 48.66 34.0801 48.41C34.0351 48.1923 34.0351 47.9677 34.0801 47.75C34.1527 47.5971 34.2065 47.4359 34.2401 47.27C34.2499 47.1469 34.2499 47.0232 34.2401 46.9C34.2274 46.8084 34.2332 46.7151 34.2572 46.6258C34.2813 46.5365 34.3231 46.4529 34.3801 46.38C34.4901 46.28 34.7301 46.38 34.8801 46.38H35.5101H35.6701" fill="white"/>
<path d="M35.9101 46.24C35.8903 46.4128 35.8903 46.5873 35.9101 46.76C35.9199 46.8497 35.9024 46.9403 35.8601 47.02C35.7801 46.88 35.6301 46.47 35.7301 46.31C35.8135 46.2728 35.9038 46.2536 35.9951 46.2536C36.0864 46.2536 36.1767 46.2728 36.2601 46.31C36.4001 46.37 36.3201 47.48 36.3601 47.47H36.4201V46.87C36.4102 46.8004 36.4102 46.7297 36.4201 46.66C36.4269 46.5439 36.4505 46.4294 36.4901 46.32C36.5401 46.26 36.6801 46.32 36.7601 46.32C36.8401 46.32 37.2001 46.32 37.4201 46.32C37.6401 46.32 37.7001 46.32 37.7401 46.45C37.7551 46.6331 37.7551 46.817 37.7401 47C37.7302 47.0697 37.7302 47.1404 37.7401 47.21C37.7401 47.21 37.7901 47.29 37.8101 47.34C37.8301 47.39 37.8101 47.64 37.7401 47.79C37.7354 47.8098 37.7354 47.8303 37.7401 47.85C37.7401 47.85 37.8301 47.85 37.8601 47.85C37.9291 47.7902 37.9817 47.7139 38.0132 47.6282C38.0447 47.5425 38.0539 47.4503 38.0401 47.36C38.0261 47.2808 38.0026 47.2036 37.9701 47.13C37.9701 46.99 37.8401 46.59 37.9701 46.46C38.1001 46.33 38.4001 46.46 38.5401 46.55C39.1801 46.85 39.1101 47.55 39.0401 48.17C38.9772 48.4997 38.9437 48.8344 38.9401 49.17C38.9441 49.3274 38.9852 49.4816 39.0601 49.62C39.1383 49.8169 39.1724 50.0285 39.1601 50.24V56.05C39.1452 56.3384 39.1859 56.627 39.2801 56.9C39.3801 57.11 39.5901 57.31 39.8201 57.26C39.8477 57.2576 39.8742 57.248 39.897 57.2322C39.9198 57.2164 39.9381 57.195 39.9501 57.17C39.9601 57.1443 39.9601 57.1157 39.9501 57.09C39.9501 56.42 39.8901 55.75 39.8901 55.09C39.8901 54.82 39.8901 54.55 39.8901 54.29C39.8901 54.03 39.8201 53.61 39.7901 53.29C39.7001 52.42 39.7901 51.55 39.7901 50.68C39.7901 50.25 39.6901 49.84 39.6601 49.41C39.6834 49.0367 39.7929 48.6739 39.9801 48.35C40.2523 47.7508 40.431 47.1134 40.5101 46.46C40.5101 46.04 40.2901 45.59 40.2901 45.14C40.2901 44.36 40.5401 43.14 41.5301 43.14C43.3201 43.14 44.7601 47.47 44.7601 52.96C44.7601 58.45 43.9101 62.96 42.3401 66.02C42.0429 66.6817 41.5941 67.2641 41.0301 67.72C40.6345 68.0147 40.2127 68.2724 39.7701 68.49C38.1601 69.34 37.5301 70.42 36.7701 73.49C36.2373 75.4919 35.8792 77.5362 35.7001 79.6C35.7001 81.14 36.5901 82.38 37.7001 82.38C38.3031 82.364 38.8973 82.2316 39.4501 81.99C40.6266 81.523 41.8749 81.2625 43.1401 81.22C44.4896 81.2624 45.8234 81.5224 47.0901 81.99C47.5728 82.1993 48.094 82.3049 48.6201 82.3C48.9671 82.3084 49.3083 82.2091 49.5966 82.0157C49.8849 81.8223 50.1062 81.5443 50.2301 81.22C51.0901 79.83 51.9001 75.43 51.9001 72.33C51.9477 71.7822 51.852 71.2313 51.6223 70.7317C51.3926 70.232 51.0369 69.8006 50.5901 69.48C50.104 69.037 49.7293 68.4855 49.4964 67.8704C49.2636 67.2553 49.1792 66.5939 49.2501 65.94C49.2501 65.55 49.2501 64.86 49.3401 64.16C49.8129 59.5123 50.5474 54.895 51.5401 50.33C52.8401 44.61 54.6401 42.06 57.4201 42.06C58.027 42.0656 58.6312 42.1428 59.2201 42.29C60.5791 42.7067 61.9817 42.9651 63.4001 43.06C67.6701 43.06 71.0801 36.06 71.0801 27.37C71.1891 25.7365 70.9044 24.1007 70.2501 22.6C70.1301 22.38 69.8601 22.13 69.8001 21.91C69.7401 21.69 69.8801 21.13 69.8001 20.76C69.7384 20.3985 69.6038 20.0534 69.4043 19.7456C69.2049 19.4379 68.9449 19.174 68.6401 18.97C68.1471 18.6602 67.5682 18.5155 66.9875 18.5568C66.4067 18.5982 65.8542 18.8235 65.4101 19.2C65.2389 18.6604 64.9513 18.1649 64.5677 17.7485C64.1841 17.3321 63.7139 17.0049 63.1901 16.79C62.1338 16.3684 60.9831 16.2405 59.8601 16.42C58.9258 16.5045 58.0209 16.7905 57.2078 17.2583C56.3947 17.7262 55.6926 18.3647 55.1501 19.13C54.7775 19.9576 54.3003 20.7339 53.7301 21.44C52.6301 22.44 50.8401 22.35 49.4301 21.8C48.0787 21.0987 46.6704 20.5133 45.2201 20.05C44.0509 19.8867 42.8596 20.0077 41.7472 20.4029C40.6348 20.798 39.6341 21.4557 38.8301 22.32C37.2453 24.0606 36.0247 26.1006 35.2401 28.32C34.9749 29.3526 34.3234 30.2439 33.4201 30.81C32.0201 31.44 30.5001 30.33 29.0201 29.94C28.2326 29.7289 27.4042 29.7226 26.6137 29.9219C25.8231 30.1212 25.0967 30.5193 24.5034 31.0785C23.9102 31.6377 23.4698 32.3394 23.2242 33.1168C22.9785 33.8942 22.9358 34.7215 23.1001 35.52C23.1582 35.8428 23.2522 36.1581 23.3801 36.46C23.4601 36.67 23.7801 37.05 23.7701 37.26C23.7601 37.47 23.4001 37.89 23.3301 38.15C23.252 38.4229 23.2182 38.7065 23.2301 38.99C23.2726 39.5583 23.4183 40.114 23.6601 40.63C24.1675 41.6956 24.7913 42.7017 25.5201 43.63C26.0441 44.3718 26.6223 45.0737 27.2501 45.73C27.3219 45.8052 27.3987 45.8753 27.4801 45.94C27.5501 46 27.6901 46.06 27.7401 46.13C27.7901 46.2 27.7401 46.36 27.7401 46.46C27.7401 46.56 27.7401 46.72 27.7401 46.86C27.7401 47.39 27.7401 47.93 27.7401 48.46C27.7372 48.6322 27.7137 48.8034 27.6701 48.97C27.6602 49.0296 27.6602 49.0904 27.6701 49.15C27.6693 49.1799 27.6788 49.2091 27.697 49.2328C27.7152 49.2565 27.741 49.2731 27.7701 49.28C27.8601 49.28 27.9201 49.18 27.9401 49.08C27.9752 48.5973 27.9752 48.1127 27.9401 47.63C27.954 47.3766 27.9942 47.1252 28.0601 46.88L28.1501 46.52C28.1398 46.4571 28.1398 46.3929 28.1501 46.33C28.1501 46.27 28.1501 46.33 28.2601 46.33C28.5201 46.33 28.7801 46.33 29.0401 46.33C29.1101 46.33 29.2901 46.33 29.3401 46.33C29.3901 46.33 29.3401 46.61 29.3401 46.67C29.35 46.9315 29.3298 47.1932 29.2801 47.45C29.2201 47.75 29.1301 48.04 29.0501 48.34C28.9101 48.87 28.8301 49.42 28.7401 49.97C28.5112 51.0305 28.4404 52.1189 28.5301 53.2C28.6201 53.84 28.8201 54.47 28.8501 55.12C28.8501 55.48 28.8501 55.84 28.8501 56.2C28.8891 56.7633 29.0715 57.3072 29.3801 57.78L29.5701 57.02C29.6574 56.7491 29.6914 56.4639 29.6701 56.18C29.6701 56.03 29.6001 55.89 29.5801 55.75C29.5785 55.3456 29.6019 54.9415 29.6501 54.54C29.6022 54.1135 29.5049 53.694 29.3601 53.29C29.2383 52.7929 29.2112 52.2772 29.2801 51.77C29.2801 51.48 29.4001 51.2 29.4401 50.9C29.4801 50.6 29.4401 50.37 29.4401 50.11C29.4675 49.3417 29.6021 48.581 29.8401 47.85C29.9635 47.4875 30.1105 47.1334 30.2801 46.79C30.2801 46.68 30.4301 46.39 30.5401 46.33C30.7218 46.2952 30.9084 46.2952 31.0901 46.33C31.2801 46.33 31.4801 46.27 31.4801 46.51V47.24C31.4751 47.2832 31.4751 47.3268 31.4801 47.37C31.489 47.3896 31.5029 47.4064 31.5205 47.4187C31.5381 47.431 31.5587 47.4384 31.5801 47.44C31.6028 47.4332 31.6232 47.4202 31.639 47.4026C31.6549 47.3849 31.6656 47.3633 31.6701 47.34C31.6749 47.2935 31.6749 47.2466 31.6701 47.2C31.6347 47.0559 31.6146 46.9084 31.6101 46.76C31.5849 46.6144 31.5849 46.4656 31.6101 46.32C31.6701 46.24 31.9101 46.25 31.9901 46.32C32.0547 46.357 32.1093 46.409 32.1494 46.4717C32.1895 46.5344 32.2137 46.6059 32.2201 46.68C32.2201 46.68 32.2201 46.5 32.3001 46.43C32.3801 46.36 32.3901 46.36 32.5201 46.36H33.1901C33.3759 46.3349 33.5643 46.3349 33.7501 46.36C33.8031 46.405 33.8445 46.4621 33.8706 46.5266C33.8967 46.591 33.9068 46.6608 33.9001 46.73C33.8923 46.8395 33.8687 46.9473 33.8301 47.05C33.8202 47.1865 33.8202 47.3235 33.8301 47.46C33.8001 47.8762 33.8001 48.2939 33.8301 48.71C33.8717 49.1119 33.8884 49.5161 33.8801 49.92C33.8801 50.48 33.8801 51.03 33.8801 51.58C33.8551 51.9529 33.8551 52.3271 33.8801 52.7C33.9401 53.33 34.1801 53.95 34.1901 54.59C34.2419 54.5345 34.2798 54.4675 34.3006 54.3945C34.3215 54.3215 34.3247 54.2445 34.3101 54.17C34.2832 54.021 34.2361 53.8763 34.1701 53.74C33.924 53.2019 33.8574 52.5989 33.9801 52.02C34.0965 51.6927 34.1933 51.3588 34.2701 51.02C34.2853 50.7106 34.255 50.4006 34.1801 50.1C34.1221 49.8033 34.0887 49.5023 34.0801 49.2C34.0801 48.94 34.1301 48.66 34.0801 48.41C34.0351 48.1923 34.0351 47.9677 34.0801 47.75C34.1527 47.5971 34.2065 47.4359 34.2401 47.27C34.2499 47.1469 34.2499 47.0232 34.2401 46.9C34.2274 46.8084 34.2332 46.7151 34.2572 46.6258C34.2813 46.5365 34.3231 46.4529 34.3801 46.38C34.4901 46.28 34.7301 46.38 34.8801 46.38H35.5101H35.6701" stroke="#010101" stroke-width="0.25" stroke-miterlimit="10"/>
<path d="M81.7301 40.9399C79.9601 40.9399 77.2901 43.3299 75.3001 46.6699C72.7501 50.9199 70.9301 55.8999 69.0901 63.5799C68.5601 65.8399 68.0901 66.6599 67.2301 66.6599C66.6001 66.6599 66.1401 65.9199 66.1401 64.8799C66.1134 64.2769 66.2299 63.6761 66.4802 63.1269C66.7305 62.5776 67.1075 62.0954 67.5801 61.7199C68.0279 61.4528 68.4298 61.1151 68.7701 60.7199C69.0477 58.9977 69.1716 57.2541 69.1401 55.5099C69.0501 55.1099 61.3501 44.9999 59.8201 43.8899C59.1501 44.5399 53.8201 51.6499 53.8201 51.8899C53.7301 55.7399 53.9801 59.5999 53.9801 63.4399C53.9801 67.5599 55.6201 70.6799 57.8201 70.6799C59.5601 70.6799 60.8901 68.5599 60.8901 65.7799C60.9177 64.8624 60.7185 63.9521 60.3101 63.1299C60.1101 62.7899 60.0101 62.6099 59.9801 62.5699C59.8723 62.3379 59.8144 62.0858 59.8101 61.8299C59.8101 61.2299 60.1601 60.6599 60.5101 60.6599C61.5101 60.6599 62.3301 63.0499 62.3301 65.7399C62.3954 68.3939 61.9226 71.0337 60.9401 73.4999C60.7765 73.8848 60.5268 74.2269 60.2101 74.4999C59.9918 74.6692 59.7573 74.8166 59.5101 74.9399C58.6001 75.4099 58.2401 76.0199 57.8201 77.7599C57.5173 78.88 57.3132 80.0243 57.2101 81.1799C57.2101 82.0499 57.7101 82.7399 58.3501 82.7399C58.6938 82.735 59.0334 82.6637 59.3501 82.5299C59.9866 82.2697 60.6631 82.1209 61.3501 82.09C62.0521 82.1189 62.7476 82.2364 63.4201 82.4399C63.7473 82.5487 64.0813 82.6355 64.4201 82.7C64.7501 82.7 65.0001 82.4799 65.2201 82.09C65.8737 80.5037 66.2134 78.8056 66.2201 77.0899C66.243 76.7799 66.1861 76.4691 66.0548 76.1872C65.9235 75.9054 65.7222 75.6619 65.4701 75.4799C65.1838 75.2366 64.9606 74.9276 64.8196 74.5794C64.6786 74.2311 64.6238 73.8539 64.6601 73.4799C64.6601 71.7899 65.2901 70.4799 66.1201 70.4799C66.9501 70.4799 67.4101 71.4799 67.4101 72.9099C67.4101 73.2499 67.4101 73.7699 67.4101 74.3799C67.3101 75.6399 67.2601 76.6799 67.2601 77.5899C67.2601 81.0199 68.5701 83.3999 70.4601 83.3999C72.1501 83.3999 73.5601 80.9299 73.5601 77.8499C73.5601 76.5499 73.3301 75.9399 72.7501 75.6799L72.3501 75.5099C71.7201 75.2499 71.2201 73.8599 71.2201 72.3899C71.4622 66.7923 72.6559 61.2767 74.7501 56.0799C75.9601 52.9999 78.0501 50.7399 79.8101 50.6599L81.3801 50.5699C83.3801 50.4399 84.8101 48.4899 84.8101 45.8399C84.8101 43.1899 83.4201 40.9399 81.7301 40.9399ZM61.2501 51.0099C61.2001 51.8499 61.2501 55.5799 61.0301 56.5599C60.6201 56.1799 59.0301 56.6699 58.8301 56.9499C58.3472 56.3146 58.0871 55.5379 58.0901 54.7399C58.0401 53.9499 58.0901 51.2799 58.0901 50.7399C58.0901 50.4699 59.0201 48.6399 59.2901 48.6699C59.6944 48.6428 60.097 48.7443 60.4401 48.9599C60.7932 49.3774 61.0922 49.8377 61.3301 50.3299C61.2501 50.5499 61.2501 50.7799 61.2501 51.0099Z" fill="white" stroke="#010101" stroke-width="0.25" stroke-miterlimit="10"/>
<path d="M53.5701 99C79.8036 99 101.07 77.7335 101.07 51.5C101.07 25.2665 79.8036 4 53.5701 4C27.3365 4 6.07007 25.2665 6.07007 51.5C6.07007 77.7335 27.3365 99 53.5701 99Z" stroke="white" stroke-width="8" stroke-miterlimit="10"/>
</svg>
