<svg width="274" height="102" viewBox="0 0 274 102" fill="none" xmlns="http://www.w3.org/2000/svg">
<path d="M1 1H273V101H1V1Z" fill="#E7E7E7" stroke="black" stroke-width="2"/>
<path d="M26 10H7V30.5" stroke="black"/>
<path d="M248.234 96.7153L267.232 96.4987L266.999 76" stroke="black"/>
<path d="M76.464 47.896C76.464 42.712 76.192 37.976 75.648 33.688C75.648 33.016 76.112 32.68 77.04 32.68C77.968 32.68 79.2 33.576 80.736 35.368C82.272 37.128 83.744 39.064 85.152 41.176C86.56 43.288 87.968 45.24 89.376 47.032C90.816 48.792 91.84 49.672 92.448 49.672C93.056 49.672 94.032 48.744 95.376 46.888C96.752 45 98.096 42.952 99.408 40.744C100.752 38.504 102.192 36.456 103.728 34.6C105.296 32.712 106.544 31.768 107.472 31.768C108.432 31.768 108.912 32.024 108.912 32.536C109.2 36.472 109.344 39.992 109.344 43.096C109.344 46.2 109.328 48.728 109.296 50.68C109.264 52.6 109.232 54.008 109.2 54.904C109.2 55.768 109.152 57.768 109.056 60.904C108.96 64.008 108.912 65.832 108.912 66.376C108.432 67.048 107.776 67.384 106.944 67.384C106.592 67.384 106.256 67.288 105.936 67.096C105.744 63.16 105.648 58.52 105.648 53.176C105.648 47.832 105.696 42.296 105.792 36.568C105.152 37.08 104.24 38.28 103.056 40.168C101.904 42.024 100.784 43.88 99.696 45.736C98.608 47.56 97.376 49.224 96 50.728C94.624 52.2 93.344 52.936 92.16 52.936C90.976 52.936 89.616 52.072 88.08 50.344C86.576 48.616 84.896 46.28 83.04 43.336C81.216 40.36 80.016 38.504 79.44 37.768C79.6 40.456 79.68 43.256 79.68 46.168C79.68 49.048 79.664 51.064 79.632 52.216C79.6 57.336 79.504 61.992 79.344 66.184C78.832 66.856 78.032 67.192 76.944 67.192C76.656 67.192 76.384 67.144 76.128 67.048C76.128 67.048 76.24 60.664 76.464 47.896ZM129.328 32.536L136.72 32.68C139.184 32.68 140.88 32.968 141.808 33.544C141.712 34.44 141.376 35.032 140.8 35.32C140.224 35.608 139.392 35.752 138.304 35.752L127.936 35.608C125.312 35.608 123.104 35.688 121.312 35.848C120.96 37.64 120.784 40.216 120.784 43.576L120.832 45.736C120.832 46.664 120.816 47.656 120.784 48.712C122.256 48.968 124.176 49.096 126.544 49.096L132.256 49.048C134.432 49.048 135.68 49.16 136 49.384C136.32 49.608 136.48 49.848 136.48 50.104C136.48 51.32 134.928 51.928 131.824 51.928L120.928 51.592C120.896 52.36 120.864 53.672 120.832 55.528C120.768 59.4 120.624 62.328 120.4 64.312C122.448 64.44 123.92 64.504 124.816 64.504C125.712 64.504 126.64 64.488 127.6 64.456C128.56 64.424 130.352 64.328 132.976 64.168C135.6 64.008 137.552 63.928 138.832 63.928C140.144 63.928 141.04 64.024 141.52 64.216C142 64.376 142.24 64.76 142.24 65.368C142.24 65.752 142.128 66.024 141.904 66.184C141.712 66.312 141.536 66.424 141.376 66.52C141.216 66.584 141.008 66.648 140.752 66.712C140.528 66.744 140.32 66.776 140.128 66.808C139.968 66.84 139.728 66.872 139.408 66.904C139.12 66.904 138.88 66.92 138.688 66.952C138.528 66.952 138.304 66.952 138.016 66.952H137.344C131.072 67.24 127.056 67.384 125.296 67.384C120.016 67.384 117.376 66.648 117.376 65.176C117.312 62.2 117.28 59.368 117.28 56.68C117.28 47.816 117.568 40.44 118.144 34.552C118.816 33.496 120.768 32.888 124 32.728C126.016 32.6 127.792 32.536 129.328 32.536ZM173.338 63.256L173.77 33.496C174.282 32.984 174.826 32.728 175.402 32.728C175.978 32.728 176.426 32.824 176.746 33.016C176.97 37.272 177.082 40.776 177.082 43.528L176.698 65.752C176.698 66.392 176.698 67 176.698 67.576C175.61 68.28 174.714 68.632 174.01 68.632L173.434 68.536C173.114 68.376 172.858 68.248 172.666 68.152C172.506 68.088 172.282 67.864 171.994 67.48C171.706 67.128 171.514 66.872 171.418 66.712C171.322 66.552 171.098 66.2 170.746 65.656C170.426 65.112 170.202 64.744 170.074 64.552C169.946 64.328 169.034 62.872 167.338 60.184C165.674 57.464 164.618 55.768 164.17 55.096C163.722 54.424 162.762 53 161.29 50.824C159.85 48.648 158.714 47.032 157.882 45.976C155.418 42.84 153.146 40.312 151.066 38.392C151.226 42.584 151.306 47.064 151.306 51.832C151.306 56.6 151.21 61.688 151.018 67.096C150.634 67.672 149.562 67.96 147.802 67.96C147.802 49.88 147.738 38.744 147.61 34.552C148.218 33.976 148.81 33.688 149.386 33.688C149.962 33.688 150.522 33.848 151.066 34.168C151.898 34.68 152.826 35.448 153.85 36.472C157.242 39.864 160.442 43.72 163.45 48.04C166.49 52.36 169.786 57.432 173.338 63.256ZM185.83 33.784C186.854 33.112 187.75 32.92 188.518 33.208C188.902 33.336 189.046 33.688 188.95 34.264C187.99 40.6 187.51 44.968 187.51 47.368C187.51 49.736 187.638 51.8 187.894 53.56C188.182 55.288 188.646 57.112 189.286 59.032C189.958 60.92 190.998 62.456 192.406 63.64C193.814 64.792 195.526 65.368 197.542 65.368C200.358 65.368 202.822 63.656 204.934 60.232C207.078 56.776 208.15 52.632 208.15 47.8C208.15 42.936 207.014 38.184 204.742 33.544C205.414 32.968 206.006 32.68 206.518 32.68C207.062 32.68 207.478 32.728 207.766 32.824C210.326 36.504 211.606 41.288 211.606 47.176C211.606 52.008 210.358 56.632 207.862 61.048C206.646 63.128 205.046 64.84 203.062 66.184C201.078 67.496 198.998 68.152 196.822 68.152C194.678 68.152 192.854 67.704 191.35 66.808C189.878 65.88 188.71 64.728 187.846 63.352C187.014 61.944 186.326 60.312 185.782 58.456C184.854 55.256 184.39 51.752 184.39 47.944C184.39 42.312 184.87 37.592 185.83 33.784Z" fill="black"/>
</svg>
